<svg width="28" height="24" viewBox="0 0 28 24" fill="none" xmlns="http://www.w3.org/2000/svg">
<path d="M23.623 4.60987C23.0577 4.09888 22.3866 3.69352 21.6479 3.41696C20.9093 3.14039 20.1176 2.99805 19.318 2.99805C18.5185 2.99805 17.7267 3.14039 16.9881 3.41696C16.2494 3.69352 15.5783 4.09888 15.0131 4.60987L13.84 5.66987L12.667 4.60987C11.5252 3.57818 9.97668 2.99858 8.36202 2.99858C6.74736 2.99858 5.19883 3.57818 4.05709 4.60987C2.91535 5.64156 2.27393 7.04084 2.27393 8.49987C2.27393 9.9589 2.91535 11.3582 4.05709 12.3899L5.23015 13.4499L13.84 21.2299L22.4499 13.4499L23.623 12.3899C24.1885 11.8791 24.637 11.2727 24.9431 10.6052C25.2492 9.93777 25.4067 9.22236 25.4067 8.49987C25.4067 7.77738 25.2492 7.06198 24.9431 6.39452C24.637 5.72706 24.1885 5.12063 23.623 4.60987V4.60987Z" stroke="#04091E" stroke-width="2" stroke-linecap="round" stroke-linejoin="round"/>
</svg>
