<svg width="49" height="48" viewBox="0 0 49 48" fill="none" xmlns="http://www.w3.org/2000/svg">
<rect x="0.881348" y="0.5" width="47" height="47" rx="23.5" stroke="#04091E"/>
<path d="M28.3811 20C29.9724 20 31.4985 20.6321 32.6237 21.7574C33.749 22.8826 34.3811 24.4087 34.3811 26V33H30.3811V26C30.3811 25.4696 30.1704 24.9609 29.7953 24.5858C29.4202 24.2107 28.9115 24 28.3811 24C27.8507 24 27.342 24.2107 26.9669 24.5858C26.5918 24.9609 26.3811 25.4696 26.3811 26V33H22.3811V26C22.3811 24.4087 23.0132 22.8826 24.1385 21.7574C25.2637 20.6321 26.7898 20 28.3811 20V20Z" stroke="#04091E" stroke-width="2" stroke-linecap="round" stroke-linejoin="round"/>
<path d="M18.3811 21H14.3811V33H18.3811V21Z" stroke="#04091E" stroke-width="2" stroke-linecap="round" stroke-linejoin="round"/>
<path d="M16.3811 18C17.4857 18 18.3811 17.1046 18.3811 16C18.3811 14.8954 17.4857 14 16.3811 14C15.2765 14 14.3811 14.8954 14.3811 16C14.3811 17.1046 15.2765 18 16.3811 18Z" stroke="#04091E" stroke-width="2" stroke-linecap="round" stroke-linejoin="round"/>
</svg>
