<svg width="28" height="24" viewBox="0 0 28 24" fill="none" xmlns="http://www.w3.org/2000/svg">
<rect width="28" height="24" fill="#F5F5F5"/>
<g clip-path="url(#clip0_0_1)">
<rect width="1440" height="5528" transform="translate(-1102 -410)" fill="white"/>
<rect x="-1102" y="-410" width="1440" height="830" fill="url(#paint0_linear_0_1)"/>
<path d="M-793.772 -13V-11.32H-798.432V1H-800.112V-11.32H-804.762V-13H-793.772ZM-782.925 -5.22V1H-784.605V-4.85C-784.605 -5.35667 -784.728 -5.81667 -784.975 -6.23C-785.222 -6.64333 -785.552 -6.97 -785.965 -7.21C-786.378 -7.45667 -786.838 -7.58 -787.345 -7.58C-787.845 -7.58 -788.305 -7.45667 -788.725 -7.21C-789.138 -6.97 -789.468 -6.64333 -789.715 -6.23C-789.962 -5.81667 -790.085 -5.35667 -790.085 -4.85V1H-791.765V-14H-790.085V-7.75C-789.732 -8.21667 -789.285 -8.58667 -788.745 -8.86C-788.205 -9.14 -787.618 -9.28 -786.985 -9.28C-786.238 -9.28 -785.558 -9.09667 -784.945 -8.73C-784.325 -8.37 -783.835 -7.88333 -783.475 -7.27C-783.108 -6.65667 -782.925 -5.97333 -782.925 -5.22ZM-776.72 1.26C-777.64 1.26 -778.48 1.02333 -779.24 0.55C-779.994 0.0766666 -780.597 -0.556667 -781.05 -1.35C-781.497 -2.15 -781.72 -3.03333 -781.72 -4C-781.72 -4.73333 -781.59 -5.41667 -781.33 -6.05C-781.07 -6.69 -780.714 -7.25 -780.26 -7.73C-779.8 -8.21667 -779.267 -8.59667 -778.66 -8.87C-778.054 -9.14333 -777.407 -9.28 -776.72 -9.28C-775.967 -9.28 -775.277 -9.12667 -774.65 -8.82C-774.017 -8.52 -773.477 -8.1 -773.03 -7.56C-772.577 -7.02 -772.24 -6.39333 -772.02 -5.68C-771.794 -4.96667 -771.71 -4.20333 -771.77 -3.39H-779.93C-779.85 -2.82333 -779.664 -2.31667 -779.37 -1.87C-779.077 -1.43 -778.704 -1.08 -778.25 -0.82C-777.79 -0.56 -777.28 -0.426667 -776.72 -0.42C-776.12 -0.42 -775.577 -0.573333 -775.09 -0.88C-774.604 -1.19333 -774.21 -1.62 -773.91 -2.16L-772.2 -1.76C-772.6 -0.873333 -773.204 -0.146667 -774.01 0.42C-774.817 0.98 -775.72 1.26 -776.72 1.26ZM-779.98 -4.71H-773.46C-773.514 -5.27 -773.694 -5.78 -774 -6.24C-774.307 -6.70667 -774.697 -7.08 -775.17 -7.36C-775.644 -7.64 -776.16 -7.78 -776.72 -7.78C-777.28 -7.78 -777.794 -7.64333 -778.26 -7.37C-778.727 -7.09667 -779.114 -6.72667 -779.42 -6.26C-779.72 -5.8 -779.907 -5.28333 -779.98 -4.71ZM-758.664 1.26C-759.61 1.26 -760.5 1.07333 -761.334 0.7C-762.167 0.32 -762.9 -0.2 -763.534 -0.86C-764.16 -1.52667 -764.654 -2.3 -765.014 -3.18C-765.367 -4.06 -765.544 -5 -765.544 -6C-765.544 -7 -765.367 -7.94 -765.014 -8.82C-764.654 -9.7 -764.16 -10.47 -763.534 -11.13C-762.9 -11.7967 -762.167 -12.3167 -761.334 -12.69C-760.5 -13.07 -759.61 -13.26 -758.664 -13.26C-757.53 -13.26 -756.487 -12.9967 -755.534 -12.47C-754.58 -11.9433 -753.79 -11.2433 -753.164 -10.37L-754.654 -9.57C-755.12 -10.1833 -755.71 -10.67 -756.424 -11.03C-757.13 -11.3967 -757.877 -11.58 -758.664 -11.58C-759.39 -11.58 -760.07 -11.4333 -760.704 -11.14C-761.33 -10.8467 -761.88 -10.4433 -762.354 -9.93C-762.827 -9.41667 -763.197 -8.82333 -763.464 -8.15C-763.73 -7.47667 -763.864 -6.76 -763.864 -6C-763.864 -5.23333 -763.73 -4.51333 -763.464 -3.84C-763.19 -3.16667 -762.817 -2.57333 -762.344 -2.06C-761.864 -1.54667 -761.31 -1.14333 -760.684 -0.85C-760.05 -0.563333 -759.377 -0.42 -758.664 -0.42C-757.85 -0.42 -757.097 -0.603333 -756.404 -0.97C-755.704 -1.34333 -755.12 -1.83 -754.654 -2.43L-753.164 -1.62C-753.79 -0.746667 -754.58 -0.0466668 -755.534 0.48C-756.487 1 -757.53 1.26 -758.664 1.26ZM-743.666 -9H-741.986V1H-743.666L-743.736 -0.69C-744.05 -0.11 -744.483 0.36 -745.036 0.72C-745.583 1.08 -746.236 1.26 -746.996 1.26C-747.73 1.26 -748.416 1.12333 -749.056 0.85C-749.696 0.57 -750.263 0.186667 -750.756 -0.3C-751.243 -0.793333 -751.623 -1.36 -751.896 -2C-752.17 -2.64 -752.306 -3.33 -752.306 -4.07C-752.306 -4.78333 -752.173 -5.45667 -751.906 -6.09C-751.64 -6.72333 -751.27 -7.27667 -750.796 -7.75C-750.316 -8.23 -749.763 -8.60333 -749.136 -8.87C-748.51 -9.14333 -747.836 -9.28 -747.116 -9.28C-746.33 -9.28 -745.64 -9.09333 -745.046 -8.72C-744.453 -8.35333 -743.973 -7.87667 -743.606 -7.29L-743.666 -9ZM-747.026 -0.37C-746.366 -0.37 -745.796 -0.53 -745.316 -0.85C-744.83 -1.17667 -744.456 -1.61667 -744.196 -2.17C-743.93 -2.72333 -743.796 -3.33333 -743.796 -4C-743.796 -4.68 -743.93 -5.29333 -744.196 -5.84C-744.463 -6.39333 -744.84 -6.83 -745.326 -7.15C-745.806 -7.47667 -746.373 -7.64 -747.026 -7.64C-747.686 -7.64 -748.286 -7.47667 -748.826 -7.15C-749.366 -6.82333 -749.796 -6.38333 -750.116 -5.83C-750.43 -5.28333 -750.586 -4.67333 -750.586 -4C-750.586 -3.32667 -750.423 -2.71333 -750.096 -2.16C-749.77 -1.61333 -749.336 -1.17667 -748.796 -0.85C-748.256 -0.53 -747.666 -0.37 -747.026 -0.37ZM-738.307 6H-739.987V-9H-738.307V-7.29C-737.967 -7.87667 -737.514 -8.35 -736.947 -8.71C-736.381 -9.07667 -735.707 -9.26 -734.927 -9.26C-734.201 -9.26 -733.521 -9.12333 -732.887 -8.85C-732.247 -8.57667 -731.687 -8.19667 -731.207 -7.71C-730.727 -7.23 -730.351 -6.67333 -730.077 -6.04C-729.804 -5.40667 -729.667 -4.72667 -729.667 -4C-729.667 -3.27333 -729.804 -2.59 -730.077 -1.95C-730.351 -1.31 -730.727 -0.746667 -731.207 -0.26C-731.687 0.22 -732.247 0.596667 -732.887 0.87C-733.521 1.14333 -734.201 1.28 -734.927 1.28C-735.707 1.28 -736.381 1.1 -736.947 0.74C-737.514 0.373333 -737.967 -0.103333 -738.307 -0.69V6ZM-734.947 -7.63C-735.594 -7.63 -736.161 -7.46667 -736.647 -7.14C-737.134 -6.81333 -737.511 -6.37667 -737.777 -5.83C-738.037 -5.28333 -738.167 -4.67333 -738.167 -4C-738.167 -3.33333 -738.037 -2.72333 -737.777 -2.17C-737.511 -1.61667 -737.137 -1.17667 -736.657 -0.85C-736.171 -0.523333 -735.601 -0.36 -734.947 -0.36C-734.301 -0.36 -733.707 -0.52 -733.167 -0.84C-732.627 -1.16667 -732.194 -1.60333 -731.867 -2.15C-731.541 -2.70333 -731.377 -3.32 -731.377 -4C-731.377 -4.66667 -731.537 -5.27333 -731.857 -5.82C-732.177 -6.37333 -732.607 -6.81333 -733.147 -7.14C-733.687 -7.46667 -734.287 -7.63 -734.947 -7.63ZM-722.932 -7.32H-725.202L-725.212 1H-726.892L-726.882 -7.32H-728.602V-9H-726.882L-726.892 -12.14H-725.212L-725.202 -9H-722.932V-7.32ZM-713.354 -9H-711.674V1H-713.354L-713.424 -0.69C-713.737 -0.11 -714.17 0.36 -714.724 0.72C-715.27 1.08 -715.924 1.26 -716.684 1.26C-717.417 1.26 -718.104 1.12333 -718.744 0.85C-719.384 0.57 -719.95 0.186667 -720.444 -0.3C-720.93 -0.793333 -721.31 -1.36 -721.584 -2C-721.857 -2.64 -721.994 -3.33 -721.994 -4.07C-721.994 -4.78333 -721.86 -5.45667 -721.594 -6.09C-721.327 -6.72333 -720.957 -7.27667 -720.484 -7.75C-720.004 -8.23 -719.45 -8.60333 -718.824 -8.87C-718.197 -9.14333 -717.524 -9.28 -716.804 -9.28C-716.017 -9.28 -715.327 -9.09333 -714.734 -8.72C-714.14 -8.35333 -713.66 -7.87667 -713.294 -7.29L-713.354 -9ZM-716.714 -0.37C-716.054 -0.37 -715.484 -0.53 -715.004 -0.85C-714.517 -1.17667 -714.144 -1.61667 -713.884 -2.17C-713.617 -2.72333 -713.484 -3.33333 -713.484 -4C-713.484 -4.68 -713.617 -5.29333 -713.884 -5.84C-714.15 -6.39333 -714.527 -6.83 -715.014 -7.15C-715.494 -7.47667 -716.06 -7.64 -716.714 -7.64C-717.374 -7.64 -717.974 -7.47667 -718.514 -7.15C-719.054 -6.82333 -719.484 -6.38333 -719.804 -5.83C-720.117 -5.28333 -720.274 -4.67333 -720.274 -4C-720.274 -3.32667 -720.11 -2.71333 -719.784 -2.16C-719.457 -1.61333 -719.024 -1.17667 -718.484 -0.85C-717.944 -0.53 -717.354 -0.37 -716.714 -0.37ZM-709.675 -9H-707.995V1H-709.675V-9ZM-708.815 -10.63C-709.082 -10.63 -709.305 -10.7167 -709.485 -10.89C-709.665 -11.0633 -709.755 -11.28 -709.755 -11.54C-709.755 -11.8 -709.665 -12.0167 -709.485 -12.19C-709.305 -12.3633 -709.085 -12.45 -708.825 -12.45C-708.565 -12.45 -708.345 -12.3633 -708.165 -12.19C-707.985 -12.0167 -707.895 -11.8 -707.895 -11.54C-707.895 -11.28 -707.985 -11.0633 -708.165 -10.89C-708.338 -10.7167 -708.555 -10.63 -708.815 -10.63ZM-696.812 -5.22V1H-698.492V-4.85C-698.492 -5.35667 -698.615 -5.81667 -698.862 -6.23C-699.108 -6.64333 -699.438 -6.97 -699.852 -7.21C-700.265 -7.45667 -700.725 -7.58 -701.232 -7.58C-701.732 -7.58 -702.192 -7.45667 -702.612 -7.21C-703.025 -6.97 -703.355 -6.64333 -703.602 -6.23C-703.848 -5.81667 -703.972 -5.35667 -703.972 -4.85V1H-705.652V-9H-703.972V-7.75C-703.618 -8.21667 -703.172 -8.58667 -702.632 -8.86C-702.092 -9.14 -701.505 -9.28 -700.872 -9.28C-700.125 -9.28 -699.445 -9.09667 -698.832 -8.73C-698.212 -8.37 -697.722 -7.88333 -697.362 -7.27C-696.995 -6.65667 -696.812 -5.97333 -696.812 -5.22ZM-683.527 1.26C-684.474 1.26 -685.364 1.07333 -686.197 0.7C-687.03 0.32 -687.764 -0.2 -688.397 -0.86C-689.024 -1.52667 -689.517 -2.3 -689.877 -3.18C-690.23 -4.06 -690.407 -5 -690.407 -6C-690.407 -7 -690.23 -7.94 -689.877 -8.82C-689.517 -9.7 -689.024 -10.47 -688.397 -11.13C-687.764 -11.7967 -687.03 -12.3167 -686.197 -12.69C-685.364 -13.07 -684.474 -13.26 -683.527 -13.26C-682.394 -13.26 -681.35 -12.9967 -680.397 -12.47C-679.444 -11.9433 -678.654 -11.2433 -678.027 -10.37L-679.517 -9.57C-679.984 -10.1833 -680.574 -10.67 -681.287 -11.03C-681.994 -11.3967 -682.74 -11.58 -683.527 -11.58C-684.254 -11.58 -684.934 -11.4333 -685.567 -11.14C-686.194 -10.8467 -686.744 -10.4433 -687.217 -9.93C-687.69 -9.41667 -688.06 -8.82333 -688.327 -8.15C-688.594 -7.47667 -688.727 -6.76 -688.727 -6C-688.727 -5.23333 -688.594 -4.51333 -688.327 -3.84C-688.054 -3.16667 -687.68 -2.57333 -687.207 -2.06C-686.727 -1.54667 -686.174 -1.14333 -685.547 -0.85C-684.914 -0.563333 -684.24 -0.42 -683.527 -0.42C-682.714 -0.42 -681.96 -0.603333 -681.267 -0.97C-680.567 -1.34333 -679.984 -1.83 -679.517 -2.43L-678.027 -1.62C-678.654 -0.746667 -679.444 -0.0466668 -680.397 0.48C-681.35 1 -682.394 1.26 -683.527 1.26ZM-672.17 1.26C-673.09 1.26 -673.93 1.02333 -674.69 0.55C-675.443 0.0766666 -676.046 -0.556667 -676.5 -1.35C-676.946 -2.15 -677.17 -3.03333 -677.17 -4C-677.17 -4.73333 -677.04 -5.41667 -676.78 -6.05C-676.52 -6.69 -676.163 -7.25 -675.71 -7.73C-675.25 -8.21667 -674.716 -8.59667 -674.11 -8.87C-673.503 -9.14333 -672.856 -9.28 -672.17 -9.28C-671.25 -9.28 -670.413 -9.04333 -669.66 -8.57C-668.9 -8.09667 -668.296 -7.46 -667.85 -6.66C-667.396 -5.86 -667.17 -4.97333 -667.17 -4C-667.17 -3.27333 -667.3 -2.59333 -667.56 -1.96C-667.82 -1.32667 -668.18 -0.766667 -668.64 -0.28C-669.093 0.2 -669.623 0.576667 -670.23 0.85C-670.83 1.12333 -671.476 1.26 -672.17 1.26ZM-672.17 -0.42C-671.543 -0.42 -670.98 -0.583333 -670.48 -0.91C-669.973 -1.24333 -669.576 -1.68 -669.29 -2.22C-668.996 -2.76667 -668.85 -3.36 -668.85 -4C-668.85 -4.65333 -669 -5.25333 -669.3 -5.8C-669.593 -6.34667 -669.99 -6.78333 -670.49 -7.11C-670.99 -7.43667 -671.55 -7.6 -672.17 -7.6C-672.796 -7.6 -673.36 -7.43333 -673.86 -7.1C-674.36 -6.77333 -674.756 -6.33667 -675.05 -5.79C-675.343 -5.24333 -675.49 -4.64667 -675.49 -4C-675.49 -3.33333 -675.34 -2.72667 -675.04 -2.18C-674.74 -1.64 -674.336 -1.21 -673.83 -0.89C-673.323 -0.576667 -672.77 -0.42 -672.17 -0.42ZM-665.652 -9H-663.972V1H-665.652V-9ZM-664.792 -10.63C-665.058 -10.63 -665.282 -10.7167 -665.462 -10.89C-665.642 -11.0633 -665.732 -11.28 -665.732 -11.54C-665.732 -11.8 -665.642 -12.0167 -665.462 -12.19C-665.282 -12.3633 -665.062 -12.45 -664.802 -12.45C-664.542 -12.45 -664.322 -12.3633 -664.142 -12.19C-663.962 -12.0167 -663.872 -11.8 -663.872 -11.54C-663.872 -11.28 -663.962 -11.0633 -664.142 -10.89C-664.315 -10.7167 -664.532 -10.63 -664.792 -10.63ZM-652.788 -5.22V1H-654.468V-4.85C-654.468 -5.35667 -654.591 -5.81667 -654.838 -6.23C-655.085 -6.64333 -655.415 -6.97 -655.828 -7.21C-656.241 -7.45667 -656.701 -7.58 -657.208 -7.58C-657.708 -7.58 -658.168 -7.45667 -658.588 -7.21C-659.001 -6.97 -659.331 -6.64333 -659.578 -6.23C-659.825 -5.81667 -659.948 -5.35667 -659.948 -4.85V1H-661.628V-9H-659.948V-7.75C-659.595 -8.21667 -659.148 -8.58667 -658.608 -8.86C-658.068 -9.14 -657.481 -9.28 -656.848 -9.28C-656.101 -9.28 -655.421 -9.09667 -654.808 -8.73C-654.188 -8.37 -653.698 -7.88333 -653.338 -7.27C-652.971 -6.65667 -652.788 -5.97333 -652.788 -5.22ZM-645.984 -9H-644.304V1H-645.984V-9ZM-645.124 -10.63C-645.39 -10.63 -645.614 -10.7167 -645.794 -10.89C-645.974 -11.0633 -646.064 -11.28 -646.064 -11.54C-646.064 -11.8 -645.974 -12.0167 -645.794 -12.19C-645.614 -12.3633 -645.394 -12.45 -645.134 -12.45C-644.874 -12.45 -644.654 -12.3633 -644.474 -12.19C-644.294 -12.0167 -644.204 -11.8 -644.204 -11.54C-644.204 -11.28 -644.294 -11.0633 -644.474 -10.89C-644.647 -10.7167 -644.864 -10.63 -645.124 -10.63ZM-638.949 1.19C-639.489 1.17 -640.016 1.07 -640.529 0.89C-641.036 0.703333 -641.483 0.453333 -641.869 0.14C-642.249 -0.18 -642.526 -0.546667 -642.699 -0.96L-641.259 -1.58C-641.159 -1.35333 -640.979 -1.14 -640.719 -0.94C-640.459 -0.74 -640.159 -0.58 -639.819 -0.46C-639.479 -0.34 -639.136 -0.28 -638.789 -0.28C-638.423 -0.28 -638.079 -0.336667 -637.759 -0.45C-637.439 -0.563333 -637.179 -0.73 -636.979 -0.95C-636.773 -1.17667 -636.669 -1.44667 -636.669 -1.76C-636.669 -2.09333 -636.783 -2.35333 -637.009 -2.54C-637.229 -2.73333 -637.509 -2.88333 -637.849 -2.99C-638.183 -3.10333 -638.523 -3.21 -638.869 -3.31C-639.556 -3.48333 -640.169 -3.69 -640.709 -3.93C-641.249 -4.17667 -641.676 -4.48667 -641.989 -4.86C-642.296 -5.24 -642.449 -5.72333 -642.449 -6.31C-642.449 -6.93 -642.279 -7.46667 -641.939 -7.92C-641.593 -8.37333 -641.139 -8.72333 -640.579 -8.97C-640.019 -9.21667 -639.419 -9.34 -638.779 -9.34C-637.973 -9.34 -637.236 -9.16667 -636.569 -8.82C-635.903 -8.47333 -635.406 -8.00333 -635.079 -7.41L-636.429 -6.62C-636.543 -6.86 -636.716 -7.07 -636.949 -7.25C-637.183 -7.43667 -637.449 -7.58333 -637.749 -7.69C-638.049 -7.79667 -638.356 -7.85333 -638.669 -7.86C-639.056 -7.87333 -639.419 -7.82333 -639.759 -7.71C-640.093 -7.59667 -640.363 -7.42333 -640.569 -7.19C-640.769 -6.96333 -640.869 -6.68 -640.869 -6.34C-640.869 -6.00667 -640.763 -5.75333 -640.549 -5.58C-640.329 -5.40667 -640.046 -5.26667 -639.699 -5.16C-639.346 -5.06 -638.963 -4.94333 -638.549 -4.81C-637.943 -4.61667 -637.376 -4.39333 -636.849 -4.14C-636.323 -3.88667 -635.899 -3.57 -635.579 -3.19C-635.253 -2.81 -635.093 -2.34 -635.099 -1.78C-635.099 -1.16667 -635.283 -0.63 -635.649 -0.17C-636.016 0.283333 -636.493 0.63 -637.079 0.87C-637.659 1.11 -638.283 1.21667 -638.949 1.19ZM-623.401 -7.32H-625.671L-625.681 1H-627.361L-627.351 -7.32H-629.071V-9H-627.351L-627.361 -12.14H-625.681L-625.671 -9H-623.401V-7.32ZM-612.769 -5.22V1H-614.449V-4.85C-614.449 -5.35667 -614.572 -5.81667 -614.819 -6.23C-615.065 -6.64333 -615.395 -6.97 -615.809 -7.21C-616.222 -7.45667 -616.682 -7.58 -617.189 -7.58C-617.689 -7.58 -618.149 -7.45667 -618.569 -7.21C-618.982 -6.97 -619.312 -6.64333 -619.559 -6.23C-619.805 -5.81667 -619.929 -5.35667 -619.929 -4.85V1H-621.609V-14H-619.929V-7.75C-619.575 -8.21667 -619.129 -8.58667 -618.589 -8.86C-618.049 -9.14 -617.462 -9.28 -616.829 -9.28C-616.082 -9.28 -615.402 -9.09667 -614.789 -8.73C-614.169 -8.37 -613.679 -7.88333 -613.319 -7.27C-612.952 -6.65667 -612.769 -5.97333 -612.769 -5.22ZM-606.564 1.26C-607.484 1.26 -608.324 1.02333 -609.084 0.55C-609.837 0.0766666 -610.441 -0.556667 -610.894 -1.35C-611.341 -2.15 -611.564 -3.03333 -611.564 -4C-611.564 -4.73333 -611.434 -5.41667 -611.174 -6.05C-610.914 -6.69 -610.557 -7.25 -610.104 -7.73C-609.644 -8.21667 -609.111 -8.59667 -608.504 -8.87C-607.897 -9.14333 -607.251 -9.28 -606.564 -9.28C-605.811 -9.28 -605.121 -9.12667 -604.494 -8.82C-603.861 -8.52 -603.321 -8.1 -602.874 -7.56C-602.421 -7.02 -602.084 -6.39333 -601.864 -5.68C-601.637 -4.96667 -601.554 -4.20333 -601.614 -3.39H-609.774C-609.694 -2.82333 -609.507 -2.31667 -609.214 -1.87C-608.921 -1.43 -608.547 -1.08 -608.094 -0.82C-607.634 -0.56 -607.124 -0.426667 -606.564 -0.42C-605.964 -0.42 -605.421 -0.573333 -604.934 -0.88C-604.447 -1.19333 -604.054 -1.62 -603.754 -2.16L-602.044 -1.76C-602.444 -0.873333 -603.047 -0.146667 -603.854 0.42C-604.661 0.98 -605.564 1.26 -606.564 1.26ZM-609.824 -4.71H-603.304C-603.357 -5.27 -603.537 -5.78 -603.844 -6.24C-604.151 -6.70667 -604.541 -7.08 -605.014 -7.36C-605.487 -7.64 -606.004 -7.78 -606.564 -7.78C-607.124 -7.78 -607.637 -7.64333 -608.104 -7.37C-608.571 -7.09667 -608.957 -6.72667 -609.264 -6.26C-609.564 -5.8 -609.751 -5.28333 -609.824 -4.71ZM-592.717 -11.47V-9H-589.787V-7.32H-592.717V1H-594.397V-7.32H-595.687V-9H-594.397V-11.47C-594.397 -11.9833 -594.274 -12.4467 -594.027 -12.86C-593.774 -13.28 -593.437 -13.6133 -593.017 -13.86C-592.591 -14.1133 -592.124 -14.24 -591.617 -14.24C-591.244 -14.24 -590.881 -14.1633 -590.527 -14.01C-590.174 -13.8633 -589.861 -13.6433 -589.587 -13.35L-590.787 -12.16C-590.881 -12.2867 -591.004 -12.3833 -591.157 -12.45C-591.304 -12.5233 -591.457 -12.56 -591.617 -12.56C-591.917 -12.56 -592.177 -12.4533 -592.397 -12.24C-592.611 -12.0267 -592.717 -11.77 -592.717 -11.47ZM-588.249 -9H-586.569V1H-588.249V-9ZM-587.389 -10.63C-587.656 -10.63 -587.879 -10.7167 -588.059 -10.89C-588.239 -11.0633 -588.329 -11.28 -588.329 -11.54C-588.329 -11.8 -588.239 -12.0167 -588.059 -12.19C-587.879 -12.3633 -587.659 -12.45 -587.399 -12.45C-587.139 -12.45 -586.919 -12.3633 -586.739 -12.19C-586.559 -12.0167 -586.469 -11.8 -586.469 -11.54C-586.469 -11.28 -586.559 -11.0633 -586.739 -10.89C-586.913 -10.7167 -587.129 -10.63 -587.389 -10.63ZM-584.226 1V-9H-582.546V-7.75C-582.192 -8.21667 -581.746 -8.58667 -581.206 -8.86C-580.666 -9.14 -580.079 -9.28 -579.446 -9.28C-579.059 -9.28 -578.686 -9.23 -578.326 -9.13L-579.006 -7.45C-579.279 -7.53667 -579.546 -7.58 -579.806 -7.58C-580.306 -7.58 -580.766 -7.45667 -581.186 -7.21C-581.599 -6.97 -581.929 -6.64333 -582.176 -6.23C-582.422 -5.81667 -582.546 -5.35667 -582.546 -4.85V1H-584.226ZM-574.047 1.19C-574.587 1.17 -575.114 1.07 -575.627 0.89C-576.134 0.703333 -576.58 0.453333 -576.967 0.14C-577.347 -0.18 -577.624 -0.546667 -577.797 -0.96L-576.357 -1.58C-576.257 -1.35333 -576.077 -1.14 -575.817 -0.94C-575.557 -0.74 -575.257 -0.58 -574.917 -0.46C-574.577 -0.34 -574.234 -0.28 -573.887 -0.28C-573.52 -0.28 -573.177 -0.336667 -572.857 -0.45C-572.537 -0.563333 -572.277 -0.73 -572.077 -0.95C-571.87 -1.17667 -571.767 -1.44667 -571.767 -1.76C-571.767 -2.09333 -571.88 -2.35333 -572.107 -2.54C-572.327 -2.73333 -572.607 -2.88333 -572.947 -2.99C-573.28 -3.10333 -573.62 -3.21 -573.967 -3.31C-574.654 -3.48333 -575.267 -3.69 -575.807 -3.93C-576.347 -4.17667 -576.774 -4.48667 -577.087 -4.86C-577.394 -5.24 -577.547 -5.72333 -577.547 -6.31C-577.547 -6.93 -577.377 -7.46667 -577.037 -7.92C-576.69 -8.37333 -576.237 -8.72333 -575.677 -8.97C-575.117 -9.21667 -574.517 -9.34 -573.877 -9.34C-573.07 -9.34 -572.334 -9.16667 -571.667 -8.82C-571 -8.47333 -570.504 -8.00333 -570.177 -7.41L-571.527 -6.62C-571.64 -6.86 -571.814 -7.07 -572.047 -7.25C-572.28 -7.43667 -572.547 -7.58333 -572.847 -7.69C-573.147 -7.79667 -573.454 -7.85333 -573.767 -7.86C-574.154 -7.87333 -574.517 -7.82333 -574.857 -7.71C-575.19 -7.59667 -575.46 -7.42333 -575.667 -7.19C-575.867 -6.96333 -575.967 -6.68 -575.967 -6.34C-575.967 -6.00667 -575.86 -5.75333 -575.647 -5.58C-575.427 -5.40667 -575.144 -5.26667 -574.797 -5.16C-574.444 -5.06 -574.06 -4.94333 -573.647 -4.81C-573.04 -4.61667 -572.474 -4.39333 -571.947 -4.14C-571.42 -3.88667 -570.997 -3.57 -570.677 -3.19C-570.35 -2.81 -570.19 -2.34 -570.197 -1.78C-570.197 -1.16667 -570.38 -0.63 -570.747 -0.17C-571.114 0.283333 -571.59 0.63 -572.177 0.87C-572.757 1.11 -573.38 1.21667 -574.047 1.19ZM-563.304 -7.32H-565.574L-565.584 1H-567.264L-567.254 -7.32H-568.974V-9H-567.254L-567.264 -12.14H-565.584L-565.574 -9H-563.304V-7.32ZM-552.266 1L-557.346 -13H-555.566L-551.226 -1.05L-546.876 -13H-545.106L-550.186 1H-552.266ZM-540.099 1.26C-541.019 1.26 -541.859 1.02333 -542.619 0.55C-543.373 0.0766666 -543.976 -0.556667 -544.429 -1.35C-544.876 -2.15 -545.099 -3.03333 -545.099 -4C-545.099 -4.73333 -544.969 -5.41667 -544.709 -6.05C-544.449 -6.69 -544.093 -7.25 -543.639 -7.73C-543.179 -8.21667 -542.646 -8.59667 -542.039 -8.87C-541.433 -9.14333 -540.786 -9.28 -540.099 -9.28C-539.179 -9.28 -538.343 -9.04333 -537.589 -8.57C-536.829 -8.09667 -536.226 -7.46 -535.779 -6.66C-535.326 -5.86 -535.099 -4.97333 -535.099 -4C-535.099 -3.27333 -535.229 -2.59333 -535.489 -1.96C-535.749 -1.32667 -536.109 -0.766667 -536.569 -0.28C-537.023 0.2 -537.553 0.576667 -538.159 0.85C-538.759 1.12333 -539.406 1.26 -540.099 1.26ZM-540.099 -0.42C-539.473 -0.42 -538.909 -0.583333 -538.409 -0.91C-537.903 -1.24333 -537.506 -1.68 -537.219 -2.22C-536.926 -2.76667 -536.779 -3.36 -536.779 -4C-536.779 -4.65333 -536.929 -5.25333 -537.229 -5.8C-537.523 -6.34667 -537.919 -6.78333 -538.419 -7.11C-538.919 -7.43667 -539.479 -7.6 -540.099 -7.6C-540.726 -7.6 -541.289 -7.43333 -541.789 -7.1C-542.289 -6.77333 -542.686 -6.33667 -542.979 -5.79C-543.273 -5.24333 -543.419 -4.64667 -543.419 -4C-543.419 -3.33333 -543.269 -2.72667 -542.969 -2.18C-542.669 -1.64 -542.266 -1.21 -541.759 -0.89C-541.253 -0.576667 -540.699 -0.42 -540.099 -0.42ZM-528.382 -7.32H-530.652L-530.662 1H-532.342L-532.332 -7.32H-534.052V-9H-532.332L-532.342 -12.14H-530.662L-530.652 -9H-528.382V-7.32ZM-526.687 -9H-525.007V1H-526.687V-9ZM-525.827 -10.63C-526.093 -10.63 -526.317 -10.7167 -526.497 -10.89C-526.677 -11.0633 -526.767 -11.28 -526.767 -11.54C-526.767 -11.8 -526.677 -12.0167 -526.497 -12.19C-526.317 -12.3633 -526.097 -12.45 -525.837 -12.45C-525.577 -12.45 -525.357 -12.3633 -525.177 -12.19C-524.997 -12.0167 -524.907 -11.8 -524.907 -11.54C-524.907 -11.28 -524.997 -11.0633 -525.177 -10.89C-525.35 -10.7167 -525.567 -10.63 -525.827 -10.63ZM-513.823 -5.22V1H-515.503V-4.85C-515.503 -5.35667 -515.627 -5.81667 -515.873 -6.23C-516.12 -6.64333 -516.45 -6.97 -516.863 -7.21C-517.277 -7.45667 -517.737 -7.58 -518.243 -7.58C-518.743 -7.58 -519.203 -7.45667 -519.623 -7.21C-520.037 -6.97 -520.367 -6.64333 -520.613 -6.23C-520.86 -5.81667 -520.983 -5.35667 -520.983 -4.85V1H-522.663V-9H-520.983V-7.75C-520.63 -8.21667 -520.183 -8.58667 -519.643 -8.86C-519.103 -9.14 -518.517 -9.28 -517.883 -9.28C-517.137 -9.28 -516.457 -9.09667 -515.843 -8.73C-515.223 -8.37 -514.733 -7.88333 -514.373 -7.27C-514.007 -6.65667 -513.823 -5.97333 -513.823 -5.22ZM-504.209 -9H-502.529V1.32C-502.529 1.98 -502.672 2.59333 -502.959 3.16C-503.239 3.73333 -503.619 4.23 -504.099 4.65C-504.579 5.07667 -505.125 5.40667 -505.739 5.64C-506.352 5.88 -506.992 6 -507.659 6C-508.352 6 -509.022 5.84333 -509.669 5.53C-510.315 5.22333 -510.882 4.81 -511.369 4.29C-511.849 3.77667 -512.195 3.2 -512.409 2.56L-510.869 1.86C-510.742 2.32 -510.515 2.73333 -510.189 3.1C-509.855 3.47333 -509.469 3.76667 -509.029 3.98C-508.582 4.2 -508.125 4.31 -507.659 4.31C-507.219 4.31 -506.795 4.23333 -506.389 4.08C-505.975 3.92667 -505.605 3.71333 -505.279 3.44C-504.945 3.17333 -504.685 2.85667 -504.499 2.49C-504.305 2.13 -504.209 1.74 -504.209 1.32V-0.67C-504.549 -0.0966667 -504.999 0.37 -505.559 0.73C-506.112 1.08333 -506.759 1.26 -507.499 1.26C-508.205 1.26 -508.869 1.12333 -509.489 0.85C-510.109 0.576667 -510.652 0.2 -511.119 -0.28C-511.585 -0.766667 -511.952 -1.32667 -512.219 -1.96C-512.485 -2.59333 -512.619 -3.27333 -512.619 -4C-512.619 -4.72667 -512.485 -5.40667 -512.219 -6.04C-511.952 -6.68 -511.585 -7.24 -511.119 -7.72C-510.652 -8.20667 -510.109 -8.58667 -509.489 -8.86C-508.869 -9.13333 -508.205 -9.27 -507.499 -9.27C-506.759 -9.27 -506.112 -9.09333 -505.559 -8.74C-504.999 -8.38667 -504.549 -7.92 -504.209 -7.34V-9ZM-507.489 -0.37C-506.842 -0.37 -506.282 -0.536667 -505.809 -0.87C-505.329 -1.20333 -504.959 -1.64667 -504.699 -2.2C-504.439 -2.75333 -504.309 -3.35333 -504.309 -4C-504.309 -4.66667 -504.442 -5.27333 -504.709 -5.82C-504.969 -6.37333 -505.339 -6.81333 -505.819 -7.14C-506.292 -7.47333 -506.849 -7.64 -507.489 -7.64C-508.115 -7.64 -508.689 -7.47667 -509.209 -7.15C-509.729 -6.82333 -510.142 -6.38333 -510.449 -5.83C-510.749 -5.28333 -510.899 -4.67333 -510.899 -4C-510.899 -3.32667 -510.745 -2.71333 -510.439 -2.16C-510.125 -1.61333 -509.712 -1.17667 -509.199 -0.85C-508.679 -0.53 -508.109 -0.37 -507.489 -0.37ZM-493.644 1.26C-494.591 1.26 -495.481 1.07333 -496.314 0.7C-497.148 0.32 -497.881 -0.2 -498.514 -0.86C-499.141 -1.52667 -499.634 -2.3 -499.994 -3.18C-500.348 -4.06 -500.524 -5 -500.524 -6C-500.524 -7 -500.348 -7.94 -499.994 -8.82C-499.634 -9.7 -499.141 -10.47 -498.514 -11.13C-497.881 -11.7967 -497.148 -12.3167 -496.314 -12.69C-495.481 -13.07 -494.591 -13.26 -493.644 -13.26C-492.511 -13.26 -491.468 -12.9967 -490.514 -12.47C-489.561 -11.9433 -488.771 -11.2433 -488.144 -10.37L-489.634 -9.57C-490.101 -10.1833 -490.691 -10.67 -491.404 -11.03C-492.111 -11.3967 -492.858 -11.58 -493.644 -11.58C-494.371 -11.58 -495.051 -11.4333 -495.684 -11.14C-496.311 -10.8467 -496.861 -10.4433 -497.334 -9.93C-497.808 -9.41667 -498.178 -8.82333 -498.444 -8.15C-498.711 -7.47667 -498.844 -6.76 -498.844 -6C-498.844 -5.23333 -498.711 -4.51333 -498.444 -3.84C-498.171 -3.16667 -497.798 -2.57333 -497.324 -2.06C-496.844 -1.54667 -496.291 -1.14333 -495.664 -0.85C-495.031 -0.563333 -494.358 -0.42 -493.644 -0.42C-492.831 -0.42 -492.078 -0.603333 -491.384 -0.97C-490.684 -1.34333 -490.101 -1.83 -489.634 -2.43L-488.144 -1.62C-488.771 -0.746667 -489.561 -0.0466668 -490.514 0.48C-491.468 1 -492.511 1.26 -493.644 1.26ZM-482.287 1.26C-483.207 1.26 -484.047 1.02333 -484.807 0.55C-485.56 0.0766666 -486.163 -0.556667 -486.617 -1.35C-487.063 -2.15 -487.287 -3.03333 -487.287 -4C-487.287 -4.73333 -487.157 -5.41667 -486.897 -6.05C-486.637 -6.69 -486.28 -7.25 -485.827 -7.73C-485.367 -8.21667 -484.833 -8.59667 -484.227 -8.87C-483.62 -9.14333 -482.973 -9.28 -482.287 -9.28C-481.367 -9.28 -480.53 -9.04333 -479.777 -8.57C-479.017 -8.09667 -478.413 -7.46 -477.967 -6.66C-477.513 -5.86 -477.287 -4.97333 -477.287 -4C-477.287 -3.27333 -477.417 -2.59333 -477.677 -1.96C-477.937 -1.32667 -478.297 -0.766667 -478.757 -0.28C-479.21 0.2 -479.74 0.576667 -480.347 0.85C-480.947 1.12333 -481.593 1.26 -482.287 1.26ZM-482.287 -0.42C-481.66 -0.42 -481.097 -0.583333 -480.597 -0.91C-480.09 -1.24333 -479.693 -1.68 -479.407 -2.22C-479.113 -2.76667 -478.967 -3.36 -478.967 -4C-478.967 -4.65333 -479.117 -5.25333 -479.417 -5.8C-479.71 -6.34667 -480.107 -6.78333 -480.607 -7.11C-481.107 -7.43667 -481.667 -7.6 -482.287 -7.6C-482.913 -7.6 -483.477 -7.43333 -483.977 -7.1C-484.477 -6.77333 -484.873 -6.33667 -485.167 -5.79C-485.46 -5.24333 -485.607 -4.64667 -485.607 -4C-485.607 -3.33333 -485.457 -2.72667 -485.157 -2.18C-484.857 -1.64 -484.453 -1.21 -483.947 -0.89C-483.44 -0.576667 -482.887 -0.42 -482.287 -0.42ZM-475.769 -9H-474.089V1H-475.769V-9ZM-474.909 -10.63C-475.175 -10.63 -475.399 -10.7167 -475.579 -10.89C-475.759 -11.0633 -475.849 -11.28 -475.849 -11.54C-475.849 -11.8 -475.759 -12.0167 -475.579 -12.19C-475.399 -12.3633 -475.179 -12.45 -474.919 -12.45C-474.659 -12.45 -474.439 -12.3633 -474.259 -12.19C-474.079 -12.0167 -473.989 -11.8 -473.989 -11.54C-473.989 -11.28 -474.079 -11.0633 -474.259 -10.89C-474.432 -10.7167 -474.649 -10.63 -474.909 -10.63ZM-462.905 -5.22V1H-464.585V-4.85C-464.585 -5.35667 -464.709 -5.81667 -464.955 -6.23C-465.202 -6.64333 -465.532 -6.97 -465.945 -7.21C-466.359 -7.45667 -466.819 -7.58 -467.325 -7.58C-467.825 -7.58 -468.285 -7.45667 -468.705 -7.21C-469.119 -6.97 -469.449 -6.64333 -469.695 -6.23C-469.942 -5.81667 -470.065 -5.35667 -470.065 -4.85V1H-471.745V-9H-470.065V-7.75C-469.712 -8.21667 -469.265 -8.58667 -468.725 -8.86C-468.185 -9.14 -467.599 -9.28 -466.965 -9.28C-466.219 -9.28 -465.539 -9.09667 -464.925 -8.73C-464.305 -8.37 -463.815 -7.88333 -463.455 -7.27C-463.089 -6.65667 -462.905 -5.97333 -462.905 -5.22ZM-451.701 1.26C-452.621 1.26 -453.461 1.02333 -454.221 0.55C-454.974 0.0766666 -455.577 -0.556667 -456.031 -1.35C-456.477 -2.15 -456.701 -3.03333 -456.701 -4C-456.701 -4.73333 -456.571 -5.41667 -456.311 -6.05C-456.051 -6.69 -455.694 -7.25 -455.241 -7.73C-454.781 -8.21667 -454.247 -8.59667 -453.641 -8.87C-453.034 -9.14333 -452.387 -9.28 -451.701 -9.28C-450.781 -9.28 -449.944 -9.04333 -449.191 -8.57C-448.431 -8.09667 -447.827 -7.46 -447.381 -6.66C-446.927 -5.86 -446.701 -4.97333 -446.701 -4C-446.701 -3.27333 -446.831 -2.59333 -447.091 -1.96C-447.351 -1.32667 -447.711 -0.766667 -448.171 -0.28C-448.624 0.2 -449.154 0.576667 -449.761 0.85C-450.361 1.12333 -451.007 1.26 -451.701 1.26ZM-451.701 -0.42C-451.074 -0.42 -450.511 -0.583333 -450.011 -0.91C-449.504 -1.24333 -449.107 -1.68 -448.821 -2.22C-448.527 -2.76667 -448.381 -3.36 -448.381 -4C-448.381 -4.65333 -448.531 -5.25333 -448.831 -5.8C-449.124 -6.34667 -449.521 -6.78333 -450.021 -7.11C-450.521 -7.43667 -451.081 -7.6 -451.701 -7.6C-452.327 -7.6 -452.891 -7.43333 -453.391 -7.1C-453.891 -6.77333 -454.287 -6.33667 -454.581 -5.79C-454.874 -5.24333 -455.021 -4.64667 -455.021 -4C-455.021 -3.33333 -454.871 -2.72667 -454.571 -2.18C-454.271 -1.64 -453.867 -1.21 -453.361 -0.89C-452.854 -0.576667 -452.301 -0.42 -451.701 -0.42ZM-442.639 -11.47V-9H-439.709V-7.32H-442.639V1H-444.319V-7.32H-445.609V-9H-444.319V-11.47C-444.319 -11.9833 -444.196 -12.4467 -443.949 -12.86C-443.696 -13.28 -443.359 -13.6133 -442.939 -13.86C-442.513 -14.1133 -442.046 -14.24 -441.539 -14.24C-441.166 -14.24 -440.803 -14.1633 -440.449 -14.01C-440.096 -13.8633 -439.783 -13.6433 -439.509 -13.35L-440.709 -12.16C-440.803 -12.2867 -440.926 -12.3833 -441.079 -12.45C-441.226 -12.5233 -441.379 -12.56 -441.539 -12.56C-441.839 -12.56 -442.099 -12.4533 -442.319 -12.24C-442.533 -12.0267 -442.639 -11.77 -442.639 -11.47ZM-428.089 -7.32H-430.359L-430.369 1H-432.049L-432.039 -7.32H-433.759V-9H-432.039L-432.049 -12.14H-430.369L-430.359 -9H-428.089V-7.32ZM-417.456 -5.22V1H-419.136V-4.85C-419.136 -5.35667 -419.259 -5.81667 -419.506 -6.23C-419.753 -6.64333 -420.083 -6.97 -420.496 -7.21C-420.909 -7.45667 -421.369 -7.58 -421.876 -7.58C-422.376 -7.58 -422.836 -7.45667 -423.256 -7.21C-423.669 -6.97 -423.999 -6.64333 -424.246 -6.23C-424.493 -5.81667 -424.616 -5.35667 -424.616 -4.85V1H-426.296V-14H-424.616V-7.75C-424.263 -8.21667 -423.816 -8.58667 -423.276 -8.86C-422.736 -9.14 -422.149 -9.28 -421.516 -9.28C-420.769 -9.28 -420.089 -9.09667 -419.476 -8.73C-418.856 -8.37 -418.366 -7.88333 -418.006 -7.27C-417.639 -6.65667 -417.456 -5.97333 -417.456 -5.22ZM-411.252 1.26C-412.172 1.26 -413.012 1.02333 -413.772 0.55C-414.525 0.0766666 -415.128 -0.556667 -415.582 -1.35C-416.028 -2.15 -416.252 -3.03333 -416.252 -4C-416.252 -4.73333 -416.122 -5.41667 -415.862 -6.05C-415.602 -6.69 -415.245 -7.25 -414.792 -7.73C-414.332 -8.21667 -413.798 -8.59667 -413.192 -8.87C-412.585 -9.14333 -411.938 -9.28 -411.252 -9.28C-410.498 -9.28 -409.808 -9.12667 -409.182 -8.82C-408.548 -8.52 -408.008 -8.1 -407.562 -7.56C-407.108 -7.02 -406.772 -6.39333 -406.552 -5.68C-406.325 -4.96667 -406.242 -4.20333 -406.302 -3.39H-414.462C-414.382 -2.82333 -414.195 -2.31667 -413.902 -1.87C-413.608 -1.43 -413.235 -1.08 -412.782 -0.82C-412.322 -0.56 -411.812 -0.426667 -411.252 -0.42C-410.652 -0.42 -410.108 -0.573333 -409.622 -0.88C-409.135 -1.19333 -408.742 -1.62 -408.442 -2.16L-406.732 -1.76C-407.132 -0.873333 -407.735 -0.146667 -408.542 0.42C-409.348 0.98 -410.252 1.26 -411.252 1.26ZM-414.512 -4.71H-407.992C-408.045 -5.27 -408.225 -5.78 -408.532 -6.24C-408.838 -6.70667 -409.228 -7.08 -409.702 -7.36C-410.175 -7.64 -410.692 -7.78 -411.252 -7.78C-411.812 -7.78 -412.325 -7.64333 -412.792 -7.37C-413.258 -7.09667 -413.645 -6.72667 -413.952 -6.26C-414.252 -5.8 -414.438 -5.28333 -414.512 -4.71ZM-395.225 1H-396.925L-400.275 -9H-398.635L-396.055 -1.37L-393.505 -9H-391.775L-389.215 -1.37L-386.665 -9H-385.005L-388.355 1H-390.065L-392.655 -6.7L-395.225 1ZM-379.377 1.26C-380.297 1.26 -381.137 1.02333 -381.897 0.55C-382.65 0.0766666 -383.253 -0.556667 -383.707 -1.35C-384.153 -2.15 -384.377 -3.03333 -384.377 -4C-384.377 -4.73333 -384.247 -5.41667 -383.987 -6.05C-383.727 -6.69 -383.37 -7.25 -382.917 -7.73C-382.457 -8.21667 -381.923 -8.59667 -381.317 -8.87C-380.71 -9.14333 -380.063 -9.28 -379.377 -9.28C-378.457 -9.28 -377.62 -9.04333 -376.867 -8.57C-376.107 -8.09667 -375.503 -7.46 -375.057 -6.66C-374.603 -5.86 -374.377 -4.97333 -374.377 -4C-374.377 -3.27333 -374.507 -2.59333 -374.767 -1.96C-375.027 -1.32667 -375.387 -0.766667 -375.847 -0.28C-376.3 0.2 -376.83 0.576667 -377.437 0.85C-378.037 1.12333 -378.683 1.26 -379.377 1.26ZM-379.377 -0.42C-378.75 -0.42 -378.187 -0.583333 -377.687 -0.91C-377.18 -1.24333 -376.783 -1.68 -376.497 -2.22C-376.203 -2.76667 -376.057 -3.36 -376.057 -4C-376.057 -4.65333 -376.207 -5.25333 -376.507 -5.8C-376.8 -6.34667 -377.197 -6.78333 -377.697 -7.11C-378.197 -7.43667 -378.757 -7.6 -379.377 -7.6C-380.003 -7.6 -380.567 -7.43333 -381.067 -7.1C-381.567 -6.77333 -381.963 -6.33667 -382.257 -5.79C-382.55 -5.24333 -382.697 -4.64667 -382.697 -4C-382.697 -3.33333 -382.547 -2.72667 -382.247 -2.18C-381.947 -1.64 -381.543 -1.21 -381.037 -0.89C-380.53 -0.576667 -379.977 -0.42 -379.377 -0.42ZM-372.722 1V-9H-371.042V-7.75C-370.689 -8.21667 -370.242 -8.58667 -369.702 -8.86C-369.162 -9.14 -368.575 -9.28 -367.942 -9.28C-367.555 -9.28 -367.182 -9.23 -366.822 -9.13L-367.502 -7.45C-367.775 -7.53667 -368.042 -7.58 -368.302 -7.58C-368.802 -7.58 -369.262 -7.45667 -369.682 -7.21C-370.095 -6.97 -370.425 -6.64333 -370.672 -6.23C-370.919 -5.81667 -371.042 -5.35667 -371.042 -4.85V1H-372.722ZM-365.671 1V-14H-363.991V1H-365.671ZM-353.637 -14H-351.957V1H-353.637V-0.7C-353.977 -0.113333 -354.433 0.36 -355.007 0.72C-355.58 1.08 -356.253 1.26 -357.027 1.26C-357.753 1.26 -358.433 1.12333 -359.067 0.85C-359.7 0.576667 -360.26 0.2 -360.747 -0.28C-361.227 -0.766667 -361.603 -1.32667 -361.877 -1.96C-362.15 -2.59333 -362.287 -3.27333 -362.287 -4C-362.287 -4.72667 -362.15 -5.40667 -361.877 -6.04C-361.603 -6.68 -361.227 -7.24 -360.747 -7.72C-360.26 -8.20667 -359.7 -8.58667 -359.067 -8.86C-358.433 -9.13333 -357.753 -9.27 -357.027 -9.27C-356.253 -9.27 -355.58 -9.09 -355.007 -8.73C-354.433 -8.37 -353.977 -7.89667 -353.637 -7.31V-14ZM-357.007 -0.37C-356.347 -0.37 -355.777 -0.53 -355.297 -0.85C-354.81 -1.17667 -354.437 -1.61667 -354.177 -2.17C-353.91 -2.72333 -353.777 -3.33333 -353.777 -4C-353.777 -4.68 -353.91 -5.29333 -354.177 -5.84C-354.443 -6.39333 -354.82 -6.83 -355.307 -7.15C-355.787 -7.47667 -356.353 -7.64 -357.007 -7.64C-357.667 -7.64 -358.267 -7.47667 -358.807 -7.15C-359.34 -6.82333 -359.767 -6.38333 -360.087 -5.83C-360.407 -5.28333 -360.567 -4.67333 -360.567 -4C-360.567 -3.32667 -360.403 -2.71333 -360.077 -2.16C-359.75 -1.61333 -359.317 -1.17667 -358.777 -0.85C-358.237 -0.53 -357.647 -0.37 -357.007 -0.37ZM-349.048 1.26C-349.301 1.26 -349.518 1.17 -349.698 0.99C-349.871 0.81 -349.958 0.59 -349.958 0.33C-349.958 0.0833333 -349.871 -0.13 -349.698 -0.31C-349.518 -0.49 -349.301 -0.58 -349.048 -0.58C-348.788 -0.58 -348.568 -0.49 -348.388 -0.31C-348.208 -0.13 -348.118 0.0833333 -348.118 0.33C-348.118 0.59 -348.208 0.81 -348.388 0.99C-348.568 1.17 -348.788 1.26 -349.048 1.26ZM-332.325 -13H-330.345L-335.085 -5.33V1H-336.765V-5.33L-341.505 -13H-339.525L-335.925 -7.17L-332.325 -13ZM-325.88 1.26C-326.8 1.26 -327.64 1.02333 -328.4 0.55C-329.154 0.0766666 -329.757 -0.556667 -330.21 -1.35C-330.657 -2.15 -330.88 -3.03333 -330.88 -4C-330.88 -4.73333 -330.75 -5.41667 -330.49 -6.05C-330.23 -6.69 -329.874 -7.25 -329.42 -7.73C-328.96 -8.21667 -328.427 -8.59667 -327.82 -8.87C-327.214 -9.14333 -326.567 -9.28 -325.88 -9.28C-324.96 -9.28 -324.124 -9.04333 -323.37 -8.57C-322.61 -8.09667 -322.007 -7.46 -321.56 -6.66C-321.107 -5.86 -320.88 -4.97333 -320.88 -4C-320.88 -3.27333 -321.01 -2.59333 -321.27 -1.96C-321.53 -1.32667 -321.89 -0.766667 -322.35 -0.28C-322.804 0.2 -323.334 0.576667 -323.94 0.85C-324.54 1.12333 -325.187 1.26 -325.88 1.26ZM-325.88 -0.42C-325.254 -0.42 -324.69 -0.583333 -324.19 -0.91C-323.684 -1.24333 -323.287 -1.68 -323 -2.22C-322.707 -2.76667 -322.56 -3.36 -322.56 -4C-322.56 -4.65333 -322.71 -5.25333 -323.01 -5.8C-323.304 -6.34667 -323.7 -6.78333 -324.2 -7.11C-324.7 -7.43667 -325.26 -7.6 -325.88 -7.6C-326.507 -7.6 -327.07 -7.43333 -327.57 -7.1C-328.07 -6.77333 -328.467 -6.33667 -328.76 -5.79C-329.054 -5.24333 -329.2 -4.64667 -329.2 -4C-329.2 -3.33333 -329.05 -2.72667 -328.75 -2.18C-328.45 -1.64 -328.047 -1.21 -327.54 -0.89C-327.034 -0.576667 -326.48 -0.42 -325.88 -0.42ZM-319.762 -2.8V-9H-318.082V-3.17C-318.082 -2.66333 -317.959 -2.20333 -317.712 -1.79C-317.466 -1.37667 -317.136 -1.04667 -316.722 -0.8C-316.302 -0.56 -315.842 -0.44 -315.342 -0.44C-314.836 -0.44 -314.379 -0.56 -313.972 -0.8C-313.559 -1.04667 -313.229 -1.37667 -312.982 -1.79C-312.736 -2.20333 -312.612 -2.66333 -312.612 -3.17V-9H-310.932L-310.922 1H-312.602L-312.612 -0.27C-312.966 0.196667 -313.412 0.57 -313.952 0.85C-314.492 1.12333 -315.076 1.26 -315.702 1.26C-316.449 1.26 -317.132 1.08 -317.752 0.72C-318.366 0.353333 -318.856 -0.136667 -319.222 -0.75C-319.582 -1.36333 -319.762 -2.04667 -319.762 -2.8ZM-297.219 -1.64L-295.719 -0.83C-296.172 -0.196667 -296.749 0.31 -297.449 0.69C-298.142 1.07 -298.895 1.26 -299.709 1.26C-300.629 1.26 -301.469 1.02333 -302.229 0.55C-302.982 0.0766666 -303.585 -0.556667 -304.039 -1.35C-304.485 -2.15 -304.709 -3.03333 -304.709 -4C-304.709 -4.73333 -304.579 -5.41667 -304.319 -6.05C-304.059 -6.69 -303.702 -7.25 -303.249 -7.73C-302.789 -8.21667 -302.255 -8.59667 -301.649 -8.87C-301.042 -9.14333 -300.395 -9.28 -299.709 -9.28C-298.895 -9.28 -298.142 -9.09 -297.449 -8.71C-296.749 -8.33 -296.172 -7.82 -295.719 -7.18L-297.219 -6.37C-297.539 -6.76333 -297.919 -7.06667 -298.359 -7.28C-298.799 -7.49333 -299.249 -7.6 -299.709 -7.6C-300.329 -7.6 -300.892 -7.43333 -301.399 -7.1C-301.899 -6.77333 -302.295 -6.33667 -302.589 -5.79C-302.882 -5.24333 -303.029 -4.64667 -303.029 -4C-303.029 -3.35333 -302.882 -2.75667 -302.589 -2.21C-302.289 -1.67 -301.889 -1.23667 -301.389 -0.91C-300.882 -0.583333 -300.322 -0.42 -299.709 -0.42C-299.215 -0.42 -298.752 -0.533333 -298.319 -0.76C-297.885 -0.986667 -297.519 -1.28 -297.219 -1.64ZM-286.049 -9H-284.369V1H-286.049L-286.119 -0.69C-286.432 -0.11 -286.866 0.36 -287.419 0.72C-287.966 1.08 -288.619 1.26 -289.379 1.26C-290.112 1.26 -290.799 1.12333 -291.439 0.85C-292.079 0.57 -292.646 0.186667 -293.139 -0.3C-293.626 -0.793333 -294.006 -1.36 -294.279 -2C-294.552 -2.64 -294.689 -3.33 -294.689 -4.07C-294.689 -4.78333 -294.556 -5.45667 -294.289 -6.09C-294.022 -6.72333 -293.652 -7.27667 -293.179 -7.75C-292.699 -8.23 -292.146 -8.60333 -291.519 -8.87C-290.892 -9.14333 -290.219 -9.28 -289.499 -9.28C-288.712 -9.28 -288.022 -9.09333 -287.429 -8.72C-286.836 -8.35333 -286.356 -7.87667 -285.989 -7.29L-286.049 -9ZM-289.409 -0.37C-288.749 -0.37 -288.179 -0.53 -287.699 -0.85C-287.212 -1.17667 -286.839 -1.61667 -286.579 -2.17C-286.312 -2.72333 -286.179 -3.33333 -286.179 -4C-286.179 -4.68 -286.312 -5.29333 -286.579 -5.84C-286.846 -6.39333 -287.222 -6.83 -287.709 -7.15C-288.189 -7.47667 -288.756 -7.64 -289.409 -7.64C-290.069 -7.64 -290.669 -7.47667 -291.209 -7.15C-291.749 -6.82333 -292.179 -6.38333 -292.499 -5.83C-292.812 -5.28333 -292.969 -4.67333 -292.969 -4C-292.969 -3.32667 -292.806 -2.71333 -292.479 -2.16C-292.152 -1.61333 -291.719 -1.17667 -291.179 -0.85C-290.639 -0.53 -290.049 -0.37 -289.409 -0.37ZM-273.53 -5.22V1H-275.21V-4.85C-275.21 -5.35667 -275.334 -5.81667 -275.58 -6.23C-275.827 -6.64333 -276.157 -6.97 -276.57 -7.21C-276.984 -7.45667 -277.444 -7.58 -277.95 -7.58C-278.45 -7.58 -278.91 -7.45667 -279.33 -7.21C-279.744 -6.97 -280.074 -6.64333 -280.32 -6.23C-280.567 -5.81667 -280.69 -5.35667 -280.69 -4.85V1H-282.37V-9H-280.69V-7.75C-280.337 -8.21667 -279.89 -8.58667 -279.35 -8.86C-278.81 -9.14 -278.224 -9.28 -277.59 -9.28C-276.844 -9.28 -276.164 -9.09667 -275.55 -8.73C-274.93 -8.37 -274.44 -7.88333 -274.08 -7.27C-273.714 -6.65667 -273.53 -5.97333 -273.53 -5.22ZM-261.526 1H-263.676L-267.326 -9.02H-265.536L-262.606 -0.95L-259.676 -9.02H-257.886L-261.526 1ZM-252.248 1.26C-253.168 1.26 -254.008 1.02333 -254.768 0.55C-255.521 0.0766666 -256.124 -0.556667 -256.578 -1.35C-257.024 -2.15 -257.248 -3.03333 -257.248 -4C-257.248 -4.73333 -257.118 -5.41667 -256.858 -6.05C-256.598 -6.69 -256.241 -7.25 -255.788 -7.73C-255.328 -8.21667 -254.794 -8.59667 -254.188 -8.87C-253.581 -9.14333 -252.934 -9.28 -252.248 -9.28C-251.328 -9.28 -250.491 -9.04333 -249.738 -8.57C-248.978 -8.09667 -248.374 -7.46 -247.928 -6.66C-247.474 -5.86 -247.248 -4.97333 -247.248 -4C-247.248 -3.27333 -247.378 -2.59333 -247.638 -1.96C-247.898 -1.32667 -248.258 -0.766667 -248.718 -0.28C-249.171 0.2 -249.701 0.576667 -250.308 0.85C-250.908 1.12333 -251.554 1.26 -252.248 1.26ZM-252.248 -0.42C-251.621 -0.42 -251.058 -0.583333 -250.558 -0.91C-250.051 -1.24333 -249.654 -1.68 -249.368 -2.22C-249.074 -2.76667 -248.928 -3.36 -248.928 -4C-248.928 -4.65333 -249.078 -5.25333 -249.378 -5.8C-249.671 -6.34667 -250.068 -6.78333 -250.568 -7.11C-251.068 -7.43667 -251.628 -7.6 -252.248 -7.6C-252.874 -7.6 -253.438 -7.43333 -253.938 -7.1C-254.438 -6.77333 -254.834 -6.33667 -255.128 -5.79C-255.421 -5.24333 -255.568 -4.64667 -255.568 -4C-255.568 -3.33333 -255.418 -2.72667 -255.118 -2.18C-254.818 -1.64 -254.414 -1.21 -253.908 -0.89C-253.401 -0.576667 -252.848 -0.42 -252.248 -0.42ZM-240.53 -7.32H-242.8L-242.81 1H-244.49L-244.48 -7.32H-246.2V-9H-244.48L-244.49 -12.14H-242.81L-242.8 -9H-240.53V-7.32ZM-234.591 1.26C-235.511 1.26 -236.351 1.02333 -237.111 0.55C-237.865 0.0766666 -238.468 -0.556667 -238.921 -1.35C-239.368 -2.15 -239.591 -3.03333 -239.591 -4C-239.591 -4.73333 -239.461 -5.41667 -239.201 -6.05C-238.941 -6.69 -238.585 -7.25 -238.131 -7.73C-237.671 -8.21667 -237.138 -8.59667 -236.531 -8.87C-235.925 -9.14333 -235.278 -9.28 -234.591 -9.28C-233.838 -9.28 -233.148 -9.12667 -232.521 -8.82C-231.888 -8.52 -231.348 -8.1 -230.901 -7.56C-230.448 -7.02 -230.111 -6.39333 -229.891 -5.68C-229.665 -4.96667 -229.581 -4.20333 -229.641 -3.39H-237.801C-237.721 -2.82333 -237.535 -2.31667 -237.241 -1.87C-236.948 -1.43 -236.575 -1.08 -236.121 -0.82C-235.661 -0.56 -235.151 -0.426667 -234.591 -0.42C-233.991 -0.42 -233.448 -0.573333 -232.961 -0.88C-232.475 -1.19333 -232.081 -1.62 -231.781 -2.16L-230.071 -1.76C-230.471 -0.873333 -231.075 -0.146667 -231.881 0.42C-232.688 0.98 -233.591 1.26 -234.591 1.26ZM-237.851 -4.71H-231.331C-231.385 -5.27 -231.565 -5.78 -231.871 -6.24C-232.178 -6.70667 -232.568 -7.08 -233.041 -7.36C-233.515 -7.64 -234.031 -7.78 -234.591 -7.78C-235.151 -7.78 -235.665 -7.64333 -236.131 -7.37C-236.598 -7.09667 -236.985 -6.72667 -237.291 -6.26C-237.591 -5.8 -237.778 -5.28333 -237.851 -4.71ZM-218.615 1.26C-219.535 1.26 -220.375 1.02333 -221.135 0.55C-221.888 0.0766666 -222.492 -0.556667 -222.945 -1.35C-223.392 -2.15 -223.615 -3.03333 -223.615 -4C-223.615 -4.73333 -223.485 -5.41667 -223.225 -6.05C-222.965 -6.69 -222.608 -7.25 -222.155 -7.73C-221.695 -8.21667 -221.162 -8.59667 -220.555 -8.87C-219.948 -9.14333 -219.302 -9.28 -218.615 -9.28C-217.695 -9.28 -216.858 -9.04333 -216.105 -8.57C-215.345 -8.09667 -214.742 -7.46 -214.295 -6.66C-213.842 -5.86 -213.615 -4.97333 -213.615 -4C-213.615 -3.27333 -213.745 -2.59333 -214.005 -1.96C-214.265 -1.32667 -214.625 -0.766667 -215.085 -0.28C-215.538 0.2 -216.068 0.576667 -216.675 0.85C-217.275 1.12333 -217.922 1.26 -218.615 1.26ZM-218.615 -0.42C-217.988 -0.42 -217.425 -0.583333 -216.925 -0.91C-216.418 -1.24333 -216.022 -1.68 -215.735 -2.22C-215.442 -2.76667 -215.295 -3.36 -215.295 -4C-215.295 -4.65333 -215.445 -5.25333 -215.745 -5.8C-216.038 -6.34667 -216.435 -6.78333 -216.935 -7.11C-217.435 -7.43667 -217.995 -7.6 -218.615 -7.6C-219.242 -7.6 -219.805 -7.43333 -220.305 -7.1C-220.805 -6.77333 -221.202 -6.33667 -221.495 -5.79C-221.788 -5.24333 -221.935 -4.64667 -221.935 -4C-221.935 -3.33333 -221.785 -2.72667 -221.485 -2.18C-221.185 -1.64 -220.782 -1.21 -220.275 -0.89C-219.768 -0.576667 -219.215 -0.42 -218.615 -0.42ZM-203.12 -5.22V1H-204.8V-4.85C-204.8 -5.35667 -204.923 -5.81667 -205.17 -6.23C-205.417 -6.64333 -205.747 -6.97 -206.16 -7.21C-206.573 -7.45667 -207.033 -7.58 -207.54 -7.58C-208.04 -7.58 -208.5 -7.45667 -208.92 -7.21C-209.333 -6.97 -209.663 -6.64333 -209.91 -6.23C-210.157 -5.81667 -210.28 -5.35667 -210.28 -4.85V1H-211.96V-9H-210.28V-7.75C-209.927 -8.21667 -209.48 -8.58667 -208.94 -8.86C-208.4 -9.14 -207.813 -9.28 -207.18 -9.28C-206.433 -9.28 -205.753 -9.09667 -205.14 -8.73C-204.52 -8.37 -204.03 -7.88333 -203.67 -7.27C-203.303 -6.65667 -203.12 -5.97333 -203.12 -5.22ZM-193.266 1.19C-193.806 1.17 -194.332 1.07 -194.846 0.89C-195.352 0.703333 -195.799 0.453333 -196.186 0.14C-196.566 -0.18 -196.842 -0.546667 -197.016 -0.96L-195.576 -1.58C-195.476 -1.35333 -195.296 -1.14 -195.036 -0.94C-194.776 -0.74 -194.476 -0.58 -194.136 -0.46C-193.796 -0.34 -193.452 -0.28 -193.106 -0.28C-192.739 -0.28 -192.396 -0.336667 -192.076 -0.45C-191.756 -0.563333 -191.496 -0.73 -191.296 -0.95C-191.089 -1.17667 -190.986 -1.44667 -190.986 -1.76C-190.986 -2.09333 -191.099 -2.35333 -191.326 -2.54C-191.546 -2.73333 -191.826 -2.88333 -192.166 -2.99C-192.499 -3.10333 -192.839 -3.21 -193.186 -3.31C-193.872 -3.48333 -194.486 -3.69 -195.026 -3.93C-195.566 -4.17667 -195.992 -4.48667 -196.306 -4.86C-196.612 -5.24 -196.766 -5.72333 -196.766 -6.31C-196.766 -6.93 -196.596 -7.46667 -196.256 -7.92C-195.909 -8.37333 -195.456 -8.72333 -194.896 -8.97C-194.336 -9.21667 -193.736 -9.34 -193.096 -9.34C-192.289 -9.34 -191.552 -9.16667 -190.886 -8.82C-190.219 -8.47333 -189.722 -8.00333 -189.396 -7.41L-190.746 -6.62C-190.859 -6.86 -191.032 -7.07 -191.266 -7.25C-191.499 -7.43667 -191.766 -7.58333 -192.066 -7.69C-192.366 -7.79667 -192.672 -7.85333 -192.986 -7.86C-193.372 -7.87333 -193.736 -7.82333 -194.076 -7.71C-194.409 -7.59667 -194.679 -7.42333 -194.886 -7.19C-195.086 -6.96333 -195.186 -6.68 -195.186 -6.34C-195.186 -6.00667 -195.079 -5.75333 -194.866 -5.58C-194.646 -5.40667 -194.362 -5.26667 -194.016 -5.16C-193.662 -5.06 -193.279 -4.94333 -192.866 -4.81C-192.259 -4.61667 -191.692 -4.39333 -191.166 -4.14C-190.639 -3.88667 -190.216 -3.57 -189.896 -3.19C-189.569 -2.81 -189.409 -2.34 -189.416 -1.78C-189.416 -1.16667 -189.599 -0.63 -189.966 -0.17C-190.332 0.283333 -190.809 0.63 -191.396 0.87C-191.976 1.11 -192.599 1.21667 -193.266 1.19ZM-183.4 1.26C-184.32 1.26 -185.16 1.02333 -185.92 0.55C-186.673 0.0766666 -187.277 -0.556667 -187.73 -1.35C-188.177 -2.15 -188.4 -3.03333 -188.4 -4C-188.4 -4.73333 -188.27 -5.41667 -188.01 -6.05C-187.75 -6.69 -187.393 -7.25 -186.94 -7.73C-186.48 -8.21667 -185.947 -8.59667 -185.34 -8.87C-184.733 -9.14333 -184.087 -9.28 -183.4 -9.28C-182.48 -9.28 -181.643 -9.04333 -180.89 -8.57C-180.13 -8.09667 -179.527 -7.46 -179.08 -6.66C-178.627 -5.86 -178.4 -4.97333 -178.4 -4C-178.4 -3.27333 -178.53 -2.59333 -178.79 -1.96C-179.05 -1.32667 -179.41 -0.766667 -179.87 -0.28C-180.323 0.2 -180.853 0.576667 -181.46 0.85C-182.06 1.12333 -182.707 1.26 -183.4 1.26ZM-183.4 -0.42C-182.773 -0.42 -182.21 -0.583333 -181.71 -0.91C-181.203 -1.24333 -180.807 -1.68 -180.52 -2.22C-180.227 -2.76667 -180.08 -3.36 -180.08 -4C-180.08 -4.65333 -180.23 -5.25333 -180.53 -5.8C-180.823 -6.34667 -181.22 -6.78333 -181.72 -7.11C-182.22 -7.43667 -182.78 -7.6 -183.4 -7.6C-184.027 -7.6 -184.59 -7.43333 -185.09 -7.1C-185.59 -6.77333 -185.987 -6.33667 -186.28 -5.79C-186.573 -5.24333 -186.72 -4.64667 -186.72 -4C-186.72 -3.33333 -186.57 -2.72667 -186.27 -2.18C-185.97 -1.64 -185.567 -1.21 -185.06 -0.89C-184.553 -0.576667 -184 -0.42 -183.4 -0.42ZM-169.914 -1.64L-168.414 -0.83C-168.867 -0.196667 -169.444 0.31 -170.144 0.69C-170.837 1.07 -171.591 1.26 -172.404 1.26C-173.324 1.26 -174.164 1.02333 -174.924 0.55C-175.677 0.0766666 -176.281 -0.556667 -176.734 -1.35C-177.181 -2.15 -177.404 -3.03333 -177.404 -4C-177.404 -4.73333 -177.274 -5.41667 -177.014 -6.05C-176.754 -6.69 -176.397 -7.25 -175.944 -7.73C-175.484 -8.21667 -174.951 -8.59667 -174.344 -8.87C-173.737 -9.14333 -173.091 -9.28 -172.404 -9.28C-171.591 -9.28 -170.837 -9.09 -170.144 -8.71C-169.444 -8.33 -168.867 -7.82 -168.414 -7.18L-169.914 -6.37C-170.234 -6.76333 -170.614 -7.06667 -171.054 -7.28C-171.494 -7.49333 -171.944 -7.6 -172.404 -7.6C-173.024 -7.6 -173.587 -7.43333 -174.094 -7.1C-174.594 -6.77333 -174.991 -6.33667 -175.284 -5.79C-175.577 -5.24333 -175.724 -4.64667 -175.724 -4C-175.724 -3.35333 -175.577 -2.75667 -175.284 -2.21C-174.984 -1.67 -174.584 -1.23667 -174.084 -0.91C-173.577 -0.583333 -173.017 -0.42 -172.404 -0.42C-171.911 -0.42 -171.447 -0.533333 -171.014 -0.76C-170.581 -0.986667 -170.214 -1.28 -169.914 -1.64ZM-166.843 -9H-165.163V1H-166.843V-9ZM-165.983 -10.63C-166.25 -10.63 -166.473 -10.7167 -166.653 -10.89C-166.833 -11.0633 -166.923 -11.28 -166.923 -11.54C-166.923 -11.8 -166.833 -12.0167 -166.653 -12.19C-166.473 -12.3633 -166.253 -12.45 -165.993 -12.45C-165.733 -12.45 -165.513 -12.3633 -165.333 -12.19C-165.153 -12.0167 -165.063 -11.8 -165.063 -11.54C-165.063 -11.28 -165.153 -11.0633 -165.333 -10.89C-165.506 -10.7167 -165.723 -10.63 -165.983 -10.63ZM-154.858 -9H-153.178V1H-154.858L-154.928 -0.69C-155.241 -0.11 -155.674 0.36 -156.228 0.72C-156.774 1.08 -157.428 1.26 -158.188 1.26C-158.921 1.26 -159.608 1.12333 -160.248 0.85C-160.888 0.57 -161.454 0.186667 -161.948 -0.3C-162.434 -0.793333 -162.814 -1.36 -163.088 -2C-163.361 -2.64 -163.498 -3.33 -163.498 -4.07C-163.498 -4.78333 -163.364 -5.45667 -163.098 -6.09C-162.831 -6.72333 -162.461 -7.27667 -161.988 -7.75C-161.508 -8.23 -160.954 -8.60333 -160.328 -8.87C-159.701 -9.14333 -159.028 -9.28 -158.308 -9.28C-157.521 -9.28 -156.831 -9.09333 -156.238 -8.72C-155.644 -8.35333 -155.164 -7.87667 -154.798 -7.29L-154.858 -9ZM-158.218 -0.37C-157.558 -0.37 -156.988 -0.53 -156.508 -0.85C-156.021 -1.17667 -155.648 -1.61667 -155.388 -2.17C-155.121 -2.72333 -154.988 -3.33333 -154.988 -4C-154.988 -4.68 -155.121 -5.29333 -155.388 -5.84C-155.654 -6.39333 -156.031 -6.83 -156.518 -7.15C-156.998 -7.47667 -157.564 -7.64 -158.218 -7.64C-158.878 -7.64 -159.478 -7.47667 -160.018 -7.15C-160.558 -6.82333 -160.988 -6.38333 -161.308 -5.83C-161.621 -5.28333 -161.778 -4.67333 -161.778 -4C-161.778 -3.32667 -161.614 -2.71333 -161.288 -2.16C-160.961 -1.61333 -160.528 -1.17667 -159.988 -0.85C-159.448 -0.53 -158.858 -0.37 -158.218 -0.37ZM-151.062 1V-14H-149.382V1H-151.062ZM-134.135 -9H-132.455V1H-134.135L-134.205 -0.69C-134.518 -0.11 -134.952 0.36 -135.505 0.72C-136.052 1.08 -136.705 1.26 -137.465 1.26C-138.198 1.26 -138.885 1.12333 -139.525 0.85C-140.165 0.57 -140.732 0.186667 -141.225 -0.3C-141.712 -0.793333 -142.092 -1.36 -142.365 -2C-142.638 -2.64 -142.775 -3.33 -142.775 -4.07C-142.775 -4.78333 -142.642 -5.45667 -142.375 -6.09C-142.108 -6.72333 -141.738 -7.27667 -141.265 -7.75C-140.785 -8.23 -140.232 -8.60333 -139.605 -8.87C-138.978 -9.14333 -138.305 -9.28 -137.585 -9.28C-136.798 -9.28 -136.108 -9.09333 -135.515 -8.72C-134.922 -8.35333 -134.442 -7.87667 -134.075 -7.29L-134.135 -9ZM-137.495 -0.37C-136.835 -0.37 -136.265 -0.53 -135.785 -0.85C-135.298 -1.17667 -134.925 -1.61667 -134.665 -2.17C-134.398 -2.72333 -134.265 -3.33333 -134.265 -4C-134.265 -4.68 -134.398 -5.29333 -134.665 -5.84C-134.932 -6.39333 -135.308 -6.83 -135.795 -7.15C-136.275 -7.47667 -136.842 -7.64 -137.495 -7.64C-138.155 -7.64 -138.755 -7.47667 -139.295 -7.15C-139.835 -6.82333 -140.265 -6.38333 -140.585 -5.83C-140.898 -5.28333 -141.055 -4.67333 -141.055 -4C-141.055 -3.32667 -140.892 -2.71333 -140.565 -2.16C-140.238 -1.61333 -139.805 -1.17667 -139.265 -0.85C-138.725 -0.53 -138.135 -0.37 -137.495 -0.37ZM-121.616 -5.22V1H-123.296V-4.85C-123.296 -5.35667 -123.42 -5.81667 -123.666 -6.23C-123.913 -6.64333 -124.243 -6.97 -124.656 -7.21C-125.07 -7.45667 -125.53 -7.58 -126.036 -7.58C-126.536 -7.58 -126.996 -7.45667 -127.416 -7.21C-127.83 -6.97 -128.16 -6.64333 -128.406 -6.23C-128.653 -5.81667 -128.776 -5.35667 -128.776 -4.85V1H-130.456V-9H-128.776V-7.75C-128.423 -8.21667 -127.976 -8.58667 -127.436 -8.86C-126.896 -9.14 -126.31 -9.28 -125.676 -9.28C-124.93 -9.28 -124.25 -9.09667 -123.636 -8.73C-123.016 -8.37 -122.526 -7.88333 -122.166 -7.27C-121.8 -6.65667 -121.616 -5.97333 -121.616 -5.22ZM-111.762 -14H-110.082V1H-111.762V-0.7C-112.102 -0.113333 -112.558 0.36 -113.132 0.72C-113.705 1.08 -114.378 1.26 -115.152 1.26C-115.878 1.26 -116.558 1.12333 -117.192 0.85C-117.825 0.576667 -118.385 0.2 -118.872 -0.28C-119.352 -0.766667 -119.728 -1.32667 -120.002 -1.96C-120.275 -2.59333 -120.412 -3.27333 -120.412 -4C-120.412 -4.72667 -120.275 -5.40667 -120.002 -6.04C-119.728 -6.68 -119.352 -7.24 -118.872 -7.72C-118.385 -8.20667 -117.825 -8.58667 -117.192 -8.86C-116.558 -9.13333 -115.878 -9.27 -115.152 -9.27C-114.378 -9.27 -113.705 -9.09 -113.132 -8.73C-112.558 -8.37 -112.102 -7.89667 -111.762 -7.31V-14ZM-115.132 -0.37C-114.472 -0.37 -113.902 -0.53 -113.422 -0.85C-112.935 -1.17667 -112.562 -1.61667 -112.302 -2.17C-112.035 -2.72333 -111.902 -3.33333 -111.902 -4C-111.902 -4.68 -112.035 -5.29333 -112.302 -5.84C-112.568 -6.39333 -112.945 -6.83 -113.432 -7.15C-113.912 -7.47667 -114.478 -7.64 -115.132 -7.64C-115.792 -7.64 -116.392 -7.47667 -116.932 -7.15C-117.465 -6.82333 -117.892 -6.38333 -118.212 -5.83C-118.532 -5.28333 -118.692 -4.67333 -118.692 -4C-118.692 -3.32667 -118.528 -2.71333 -118.202 -2.16C-117.875 -1.61333 -117.442 -1.17667 -116.902 -0.85C-116.362 -0.53 -115.772 -0.37 -115.132 -0.37ZM-98.4781 1.26C-99.3981 1.26 -100.238 1.02333 -100.998 0.55C-101.751 0.0766666 -102.355 -0.556667 -102.808 -1.35C-103.255 -2.15 -103.478 -3.03333 -103.478 -4C-103.478 -4.73333 -103.348 -5.41667 -103.088 -6.05C-102.828 -6.69 -102.471 -7.25 -102.018 -7.73C-101.558 -8.21667 -101.025 -8.59667 -100.418 -8.87C-99.8115 -9.14333 -99.1648 -9.28 -98.4781 -9.28C-97.7248 -9.28 -97.0348 -9.12667 -96.4081 -8.82C-95.7748 -8.52 -95.2348 -8.1 -94.7881 -7.56C-94.3348 -7.02 -93.9981 -6.39333 -93.7781 -5.68C-93.5515 -4.96667 -93.4681 -4.20333 -93.5281 -3.39H-101.688C-101.608 -2.82333 -101.421 -2.31667 -101.128 -1.87C-100.835 -1.43 -100.461 -1.08 -100.008 -0.82C-99.5481 -0.56 -99.0381 -0.426667 -98.4781 -0.42C-97.8781 -0.42 -97.3348 -0.573333 -96.8481 -0.88C-96.3615 -1.19333 -95.9681 -1.62 -95.6681 -2.16L-93.9581 -1.76C-94.3581 -0.873333 -94.9615 -0.146667 -95.7681 0.42C-96.5748 0.98 -97.4781 1.26 -98.4781 1.26ZM-101.738 -4.71H-95.2181C-95.2715 -5.27 -95.4515 -5.78 -95.7581 -6.24C-96.0648 -6.70667 -96.4548 -7.08 -96.9281 -7.36C-97.4015 -7.64 -97.9181 -7.78 -98.4781 -7.78C-99.0381 -7.78 -99.5515 -7.64333 -100.018 -7.37C-100.485 -7.09667 -100.871 -6.72667 -101.178 -6.26C-101.478 -5.8 -101.665 -5.28333 -101.738 -4.71ZM-85.0116 -1.64L-83.5116 -0.83C-83.9649 -0.196667 -84.5416 0.31 -85.2416 0.69C-85.9349 1.07 -86.6882 1.26 -87.5016 1.26C-88.4216 1.26 -89.2616 1.02333 -90.0216 0.55C-90.7749 0.0766666 -91.3782 -0.556667 -91.8316 -1.35C-92.2782 -2.15 -92.5016 -3.03333 -92.5016 -4C-92.5016 -4.73333 -92.3716 -5.41667 -92.1116 -6.05C-91.8516 -6.69 -91.4949 -7.25 -91.0416 -7.73C-90.5816 -8.21667 -90.0482 -8.59667 -89.4416 -8.87C-88.8349 -9.14333 -88.1882 -9.28 -87.5016 -9.28C-86.6882 -9.28 -85.9349 -9.09 -85.2416 -8.71C-84.5416 -8.33 -83.9649 -7.82 -83.5116 -7.18L-85.0116 -6.37C-85.3316 -6.76333 -85.7116 -7.06667 -86.1516 -7.28C-86.5916 -7.49333 -87.0416 -7.6 -87.5016 -7.6C-88.1216 -7.6 -88.6849 -7.43333 -89.1916 -7.1C-89.6916 -6.77333 -90.0882 -6.33667 -90.3816 -5.79C-90.6749 -5.24333 -90.8216 -4.64667 -90.8216 -4C-90.8216 -3.35333 -90.6749 -2.75667 -90.3816 -2.21C-90.0816 -1.67 -89.6816 -1.23667 -89.1816 -0.91C-88.6749 -0.583333 -88.1149 -0.42 -87.5016 -0.42C-87.0082 -0.42 -86.5449 -0.533333 -86.1116 -0.76C-85.6782 -0.986667 -85.3116 -1.28 -85.0116 -1.64ZM-77.482 1.26C-78.402 1.26 -79.242 1.02333 -80.002 0.55C-80.7554 0.0766666 -81.3587 -0.556667 -81.812 -1.35C-82.2587 -2.15 -82.482 -3.03333 -82.482 -4C-82.482 -4.73333 -82.352 -5.41667 -82.092 -6.05C-81.832 -6.69 -81.4754 -7.25 -81.022 -7.73C-80.562 -8.21667 -80.0287 -8.59667 -79.422 -8.87C-78.8154 -9.14333 -78.1687 -9.28 -77.482 -9.28C-76.562 -9.28 -75.7254 -9.04333 -74.972 -8.57C-74.212 -8.09667 -73.6087 -7.46 -73.162 -6.66C-72.7087 -5.86 -72.482 -4.97333 -72.482 -4C-72.482 -3.27333 -72.612 -2.59333 -72.872 -1.96C-73.132 -1.32667 -73.492 -0.766667 -73.952 -0.28C-74.4054 0.2 -74.9354 0.576667 -75.542 0.85C-76.142 1.12333 -76.7887 1.26 -77.482 1.26ZM-77.482 -0.42C-76.8554 -0.42 -76.292 -0.583333 -75.792 -0.91C-75.2854 -1.24333 -74.8887 -1.68 -74.602 -2.22C-74.3087 -2.76667 -74.162 -3.36 -74.162 -4C-74.162 -4.65333 -74.312 -5.25333 -74.612 -5.8C-74.9054 -6.34667 -75.302 -6.78333 -75.802 -7.11C-76.302 -7.43667 -76.862 -7.6 -77.482 -7.6C-78.1087 -7.6 -78.672 -7.43333 -79.172 -7.1C-79.672 -6.77333 -80.0687 -6.33667 -80.362 -5.79C-80.6554 -5.24333 -80.802 -4.64667 -80.802 -4C-80.802 -3.33333 -80.652 -2.72667 -80.352 -2.18C-80.052 -1.64 -79.6487 -1.21 -79.142 -0.89C-78.6354 -0.576667 -78.082 -0.42 -77.482 -0.42ZM-61.9873 -5.22V1H-63.6673V-4.85C-63.6673 -5.35667 -63.7907 -5.81667 -64.0373 -6.23C-64.284 -6.64333 -64.614 -6.97 -65.0273 -7.21C-65.4407 -7.45667 -65.9007 -7.58 -66.4073 -7.58C-66.9073 -7.58 -67.3673 -7.45667 -67.7873 -7.21C-68.2007 -6.97 -68.5307 -6.64333 -68.7773 -6.23C-69.024 -5.81667 -69.1473 -5.35667 -69.1473 -4.85V1H-70.8273V-9H-69.1473V-7.75C-68.794 -8.21667 -68.3473 -8.58667 -67.8073 -8.86C-67.2673 -9.14 -66.6807 -9.28 -66.0473 -9.28C-65.3007 -9.28 -64.6207 -9.09667 -64.0073 -8.73C-63.3873 -8.37 -62.8973 -7.88333 -62.5373 -7.27C-62.1707 -6.65667 -61.9873 -5.97333 -61.9873 -5.22ZM-55.7828 1.26C-56.7028 1.26 -57.5428 1.02333 -58.3028 0.55C-59.0561 0.0766666 -59.6595 -0.556667 -60.1128 -1.35C-60.5595 -2.15 -60.7828 -3.03333 -60.7828 -4C-60.7828 -4.73333 -60.6528 -5.41667 -60.3928 -6.05C-60.1328 -6.69 -59.7761 -7.25 -59.3228 -7.73C-58.8628 -8.21667 -58.3295 -8.59667 -57.7228 -8.87C-57.1161 -9.14333 -56.4695 -9.28 -55.7828 -9.28C-54.8628 -9.28 -54.0261 -9.04333 -53.2728 -8.57C-52.5128 -8.09667 -51.9095 -7.46 -51.4628 -6.66C-51.0095 -5.86 -50.7828 -4.97333 -50.7828 -4C-50.7828 -3.27333 -50.9128 -2.59333 -51.1728 -1.96C-51.4328 -1.32667 -51.7928 -0.766667 -52.2528 -0.28C-52.7061 0.2 -53.2361 0.576667 -53.8428 0.85C-54.4428 1.12333 -55.0895 1.26 -55.7828 1.26ZM-55.7828 -0.42C-55.1561 -0.42 -54.5928 -0.583333 -54.0928 -0.91C-53.5861 -1.24333 -53.1895 -1.68 -52.9028 -2.22C-52.6095 -2.76667 -52.4628 -3.36 -52.4628 -4C-52.4628 -4.65333 -52.6128 -5.25333 -52.9128 -5.8C-53.2061 -6.34667 -53.6028 -6.78333 -54.1028 -7.11C-54.6028 -7.43667 -55.1628 -7.6 -55.7828 -7.6C-56.4095 -7.6 -56.9728 -7.43333 -57.4728 -7.1C-57.9728 -6.77333 -58.3695 -6.33667 -58.6628 -5.79C-58.9561 -5.24333 -59.1028 -4.64667 -59.1028 -4C-59.1028 -3.33333 -58.9528 -2.72667 -58.6528 -2.18C-58.3528 -1.64 -57.9495 -1.21 -57.4428 -0.89C-56.9361 -0.576667 -56.3828 -0.42 -55.7828 -0.42ZM-49.1281 1V-9H-47.4481V-7.75C-47.0948 -8.21667 -46.6515 -8.58667 -46.1181 -8.86C-45.5781 -9.14 -44.9915 -9.28 -44.3581 -9.28C-43.6181 -9.28 -42.9415 -9.1 -42.3281 -8.74C-41.7148 -8.38 -41.2315 -7.90333 -40.8781 -7.31C-40.5248 -7.90333 -40.0448 -8.38 -39.4381 -8.74C-38.8248 -9.1 -38.1515 -9.28 -37.4181 -9.28C-36.6648 -9.28 -35.9815 -9.09667 -35.3681 -8.73C-34.7548 -8.37 -34.2681 -7.88333 -33.9081 -7.27C-33.5415 -6.65667 -33.3581 -5.97333 -33.3581 -5.22V1H-35.0381V-4.82C-35.0381 -5.31333 -35.1581 -5.77 -35.3981 -6.19C-35.6381 -6.61 -35.9615 -6.94667 -36.3681 -7.2C-36.7748 -7.45333 -37.2248 -7.58 -37.7181 -7.58C-38.2115 -7.58 -38.6615 -7.46 -39.0681 -7.22C-39.4748 -6.98667 -39.7981 -6.66 -40.0381 -6.24C-40.2781 -5.82667 -40.3981 -5.35333 -40.3981 -4.82V1H-42.0781V-4.82C-42.0781 -5.35333 -42.1981 -5.82667 -42.4381 -6.24C-42.6781 -6.66 -43.0048 -6.98667 -43.4181 -7.22C-43.8248 -7.46 -44.2748 -7.58 -44.7681 -7.58C-45.2548 -7.58 -45.7048 -7.45333 -46.1181 -7.2C-46.5248 -6.94667 -46.8481 -6.61 -47.0881 -6.19C-47.3281 -5.77 -47.4481 -5.31333 -47.4481 -4.82V1H-49.1281ZM-31.3547 -9H-29.6747V1H-31.3547V-9ZM-30.4947 -10.63C-30.7614 -10.63 -30.9847 -10.7167 -31.1647 -10.89C-31.3447 -11.0633 -31.4347 -11.28 -31.4347 -11.54C-31.4347 -11.8 -31.3447 -12.0167 -31.1647 -12.19C-30.9847 -12.3633 -30.7647 -12.45 -30.5047 -12.45C-30.2447 -12.45 -30.0247 -12.3633 -29.8447 -12.19C-29.6647 -12.0167 -29.5747 -11.8 -29.5747 -11.54C-29.5747 -11.28 -29.6647 -11.0633 -29.8447 -10.89C-30.018 -10.7167 -30.2347 -10.63 -30.4947 -10.63ZM-20.5194 -1.64L-19.0194 -0.83C-19.4727 -0.196667 -20.0494 0.31 -20.7494 0.69C-21.4427 1.07 -22.196 1.26 -23.0094 1.26C-23.9294 1.26 -24.7694 1.02333 -25.5294 0.55C-26.2827 0.0766666 -26.886 -0.556667 -27.3394 -1.35C-27.786 -2.15 -28.0094 -3.03333 -28.0094 -4C-28.0094 -4.73333 -27.8794 -5.41667 -27.6194 -6.05C-27.3594 -6.69 -27.0027 -7.25 -26.5494 -7.73C-26.0894 -8.21667 -25.556 -8.59667 -24.9494 -8.87C-24.3427 -9.14333 -23.696 -9.28 -23.0094 -9.28C-22.196 -9.28 -21.4427 -9.09 -20.7494 -8.71C-20.0494 -8.33 -19.4727 -7.82 -19.0194 -7.18L-20.5194 -6.37C-20.8394 -6.76333 -21.2194 -7.06667 -21.6594 -7.28C-22.0994 -7.49333 -22.5494 -7.6 -23.0094 -7.6C-23.6294 -7.6 -24.1927 -7.43333 -24.6994 -7.1C-25.1994 -6.77333 -25.596 -6.33667 -25.8894 -5.79C-26.1827 -5.24333 -26.3294 -4.64667 -26.3294 -4C-26.3294 -3.35333 -26.1827 -2.75667 -25.8894 -2.21C-25.5894 -1.67 -25.1894 -1.23667 -24.6894 -0.91C-24.1827 -0.583333 -23.6227 -0.42 -23.0094 -0.42C-22.516 -0.42 -22.0527 -0.533333 -21.6194 -0.76C-21.186 -0.986667 -20.8194 -1.28 -20.5194 -1.64ZM-7.22937 -7.32H-9.49937L-9.50937 1H-11.1894L-11.1794 -7.32H-12.8994V-9H-11.1794L-11.1894 -12.14H-9.50937L-9.49937 -9H-7.22937V-7.32ZM-1.29062 1.26C-2.21062 1.26 -3.05062 1.02333 -3.81062 0.55C-4.56396 0.0766666 -5.16729 -0.556667 -5.62062 -1.35C-6.06729 -2.15 -6.29062 -3.03333 -6.29062 -4C-6.29062 -4.73333 -6.16062 -5.41667 -5.90062 -6.05C-5.64062 -6.69 -5.28396 -7.25 -4.83062 -7.73C-4.37062 -8.21667 -3.83729 -8.59667 -3.23062 -8.87C-2.62396 -9.14333 -1.97729 -9.28 -1.29062 -9.28C-0.370625 -9.28 0.466042 -9.04333 1.21938 -8.57C1.97938 -8.09667 2.58271 -7.46 3.02938 -6.66C3.48271 -5.86 3.70938 -4.97333 3.70938 -4C3.70938 -3.27333 3.57938 -2.59333 3.31938 -1.96C3.05938 -1.32667 2.69938 -0.766667 2.23938 -0.28C1.78604 0.2 1.25604 0.576667 0.649375 0.85C0.0493753 1.12333 -0.597291 1.26 -1.29062 1.26ZM-1.29062 -0.42C-0.663958 -0.42 -0.100625 -0.583333 0.399375 -0.91C0.906042 -1.24333 1.30271 -1.68 1.58938 -2.22C1.88271 -2.76667 2.02938 -3.36 2.02938 -4C2.02938 -4.65333 1.87938 -5.25333 1.57938 -5.8C1.28604 -6.34667 0.889375 -6.78333 0.389375 -7.11C-0.110624 -7.43667 -0.670625 -7.6 -1.29062 -7.6C-1.91729 -7.6 -2.48062 -7.43333 -2.98062 -7.1C-3.48062 -6.77333 -3.87729 -6.33667 -4.17062 -5.79C-4.46396 -5.24333 -4.61062 -4.64667 -4.61062 -4C-4.61062 -3.33333 -4.46062 -2.72667 -4.16062 -2.18C-3.86062 -1.64 -3.45729 -1.21 -2.95062 -0.89C-2.44396 -0.576667 -1.89062 -0.42 -1.29062 -0.42ZM7.04406 6H5.36406V-9H7.04406V-7.29C7.38406 -7.87667 7.8374 -8.35 8.40406 -8.71C8.97073 -9.07667 9.64406 -9.26 10.4241 -9.26C11.1507 -9.26 11.8307 -9.12333 12.4641 -8.85C13.1041 -8.57667 13.6641 -8.19667 14.1441 -7.71C14.6241 -7.23 15.0007 -6.67333 15.2741 -6.04C15.5474 -5.40667 15.6841 -4.72667 15.6841 -4C15.6841 -3.27333 15.5474 -2.59 15.2741 -1.95C15.0007 -1.31 14.6241 -0.746667 14.1441 -0.26C13.6641 0.22 13.1041 0.596667 12.4641 0.87C11.8307 1.14333 11.1507 1.28 10.4241 1.28C9.64406 1.28 8.97073 1.1 8.40406 0.74C7.8374 0.373333 7.38406 -0.103333 7.04406 -0.69V6ZM10.4041 -7.63C9.7574 -7.63 9.19073 -7.46667 8.70406 -7.14C8.2174 -6.81333 7.84073 -6.37667 7.57406 -5.83C7.31406 -5.28333 7.18406 -4.67333 7.18406 -4C7.18406 -3.33333 7.31406 -2.72333 7.57406 -2.17C7.84073 -1.61667 8.21406 -1.17667 8.69406 -0.85C9.18073 -0.523333 9.75073 -0.36 10.4041 -0.36C11.0507 -0.36 11.6441 -0.52 12.1841 -0.84C12.7241 -1.16667 13.1574 -1.60333 13.4841 -2.15C13.8107 -2.70333 13.9741 -3.32 13.9741 -4C13.9741 -4.66667 13.8141 -5.27333 13.4941 -5.82C13.1741 -6.37333 12.7441 -6.81333 12.2041 -7.14C11.6641 -7.46667 11.0641 -7.63 10.4041 -7.63ZM17.2195 -9H18.8995V1H17.2195V-9ZM18.0795 -10.63C17.8129 -10.63 17.5895 -10.7167 17.4095 -10.89C17.2295 -11.0633 17.1395 -11.28 17.1395 -11.54C17.1395 -11.8 17.2295 -12.0167 17.4095 -12.19C17.5895 -12.3633 17.8095 -12.45 18.0695 -12.45C18.3295 -12.45 18.5495 -12.3633 18.7295 -12.19C18.9095 -12.0167 18.9995 -11.8 18.9995 -11.54C18.9995 -11.28 18.9095 -11.0633 18.7295 -10.89C18.5562 -10.7167 18.3395 -10.63 18.0795 -10.63ZM28.0548 -1.64L29.5548 -0.83C29.1015 -0.196667 28.5248 0.31 27.8248 0.69C27.1315 1.07 26.3782 1.26 25.5648 1.26C24.6448 1.26 23.8048 1.02333 23.0448 0.55C22.2915 0.0766666 21.6882 -0.556667 21.2348 -1.35C20.7882 -2.15 20.5648 -3.03333 20.5648 -4C20.5648 -4.73333 20.6948 -5.41667 20.9548 -6.05C21.2148 -6.69 21.5715 -7.25 22.0248 -7.73C22.4848 -8.21667 23.0182 -8.59667 23.6248 -8.87C24.2315 -9.14333 24.8782 -9.28 25.5648 -9.28C26.3782 -9.28 27.1315 -9.09 27.8248 -8.71C28.5248 -8.33 29.1015 -7.82 29.5548 -7.18L28.0548 -6.37C27.7348 -6.76333 27.3548 -7.06667 26.9148 -7.28C26.4748 -7.49333 26.0248 -7.6 25.5648 -7.6C24.9448 -7.6 24.3815 -7.43333 23.8748 -7.1C23.3748 -6.77333 22.9782 -6.33667 22.6848 -5.79C22.3915 -5.24333 22.2448 -4.64667 22.2448 -4C22.2448 -3.35333 22.3915 -2.75667 22.6848 -2.21C22.9848 -1.67 23.3848 -1.23667 23.8848 -0.91C24.3915 -0.583333 24.9515 -0.42 25.5648 -0.42C26.0582 -0.42 26.5215 -0.533333 26.9548 -0.76C27.3882 -0.986667 27.7548 -1.28 28.0548 -1.64ZM34.4102 1.19C33.8702 1.17 33.3435 1.07 32.8302 0.89C32.3235 0.703333 31.8768 0.453333 31.4902 0.14C31.1102 -0.18 30.8335 -0.546667 30.6602 -0.96L32.1002 -1.58C32.2002 -1.35333 32.3802 -1.14 32.6402 -0.94C32.9002 -0.74 33.2002 -0.58 33.5402 -0.46C33.8802 -0.34 34.2235 -0.28 34.5702 -0.28C34.9368 -0.28 35.2802 -0.336667 35.6002 -0.45C35.9202 -0.563333 36.1802 -0.73 36.3802 -0.95C36.5868 -1.17667 36.6902 -1.44667 36.6902 -1.76C36.6902 -2.09333 36.5768 -2.35333 36.3502 -2.54C36.1302 -2.73333 35.8502 -2.88333 35.5102 -2.99C35.1768 -3.10333 34.8368 -3.21 34.4902 -3.31C33.8035 -3.48333 33.1902 -3.69 32.6502 -3.93C32.1102 -4.17667 31.6835 -4.48667 31.3702 -4.86C31.0635 -5.24 30.9102 -5.72333 30.9102 -6.31C30.9102 -6.93 31.0802 -7.46667 31.4202 -7.92C31.7668 -8.37333 32.2202 -8.72333 32.7802 -8.97C33.3402 -9.21667 33.9402 -9.34 34.5802 -9.34C35.3868 -9.34 36.1235 -9.16667 36.7902 -8.82C37.4568 -8.47333 37.9535 -8.00333 38.2802 -7.41L36.9302 -6.62C36.8168 -6.86 36.6435 -7.07 36.4102 -7.25C36.1768 -7.43667 35.9102 -7.58333 35.6102 -7.69C35.3102 -7.79667 35.0035 -7.85333 34.6902 -7.86C34.3035 -7.87333 33.9402 -7.82333 33.6002 -7.71C33.2668 -7.59667 32.9968 -7.42333 32.7902 -7.19C32.5902 -6.96333 32.4902 -6.68 32.4902 -6.34C32.4902 -6.00667 32.5968 -5.75333 32.8102 -5.58C33.0302 -5.40667 33.3135 -5.26667 33.6602 -5.16C34.0135 -5.06 34.3968 -4.94333 34.8102 -4.81C35.4168 -4.61667 35.9835 -4.39333 36.5102 -4.14C37.0368 -3.88667 37.4602 -3.57 37.7802 -3.19C38.1068 -2.81 38.2668 -2.34 38.2602 -1.78C38.2602 -1.16667 38.0768 -0.63 37.7102 -0.17C37.3435 0.283333 36.8668 0.63 36.2802 0.87C35.7002 1.11 35.0768 1.21667 34.4102 1.19ZM40.4248 1.26C40.1715 1.26 39.9548 1.17 39.7748 0.99C39.6015 0.81 39.5148 0.59 39.5148 0.33C39.5148 0.0833333 39.6015 -0.13 39.7748 -0.31C39.9548 -0.49 40.1715 -0.58 40.4248 -0.58C40.6848 -0.58 40.9048 -0.49 41.0848 -0.31C41.2648 -0.13 41.3548 0.0833333 41.3548 0.33C41.3548 0.59 41.2648 0.81 41.0848 0.99C40.9048 1.17 40.6848 1.26 40.4248 1.26Z" fill="#04091E"/>
<g filter="url(#filter0_d_0_1)">
<rect x="-26" y="-310" width="332" height="480" fill="white"/>
<g clip-path="url(#clip1_0_1)">
<path d="M13.84 15C15.6736 15 17.16 13.6569 17.16 12C17.16 10.3431 15.6736 9 13.84 9C12.0064 9 10.52 10.3431 10.52 12C10.52 13.6569 12.0064 15 13.84 15Z" stroke="#04091E" stroke-width="2" stroke-linecap="round" stroke-linejoin="round"/>
<path d="M22.0294 15C21.8821 15.3016 21.8382 15.6362 21.9033 15.9606C21.9683 16.285 22.1395 16.5843 22.3946 16.82L22.461 16.88C22.6668 17.0657 22.8301 17.2863 22.9414 17.5291C23.0528 17.7719 23.1102 18.0322 23.1102 18.295C23.1102 18.5578 23.0528 18.8181 22.9414 19.0609C22.8301 19.3037 22.6668 19.5243 22.461 19.71C22.2555 19.896 22.0114 20.0435 21.7427 20.1441C21.474 20.2448 21.1859 20.2966 20.8951 20.2966C20.6042 20.2966 20.3162 20.2448 20.0475 20.1441C19.7788 20.0435 19.5347 19.896 19.3291 19.71L19.2627 19.65C19.0019 19.4195 18.6707 19.2648 18.3117 19.206C17.9527 19.1472 17.5824 19.1869 17.2486 19.32C16.9213 19.4468 16.6421 19.6572 16.4455 19.9255C16.2489 20.1938 16.1434 20.5082 16.1419 20.83V21C16.1419 21.5304 15.9088 22.0391 15.4937 22.4142C15.0786 22.7893 14.5156 23 13.9286 23C13.3416 23 12.7786 22.7893 12.3636 22.4142C11.9485 22.0391 11.7153 21.5304 11.7153 21V20.91C11.7067 20.579 11.5881 20.258 11.375 19.9887C11.1618 19.7194 10.864 19.5143 10.5201 19.4C10.1863 19.2669 9.81603 19.2272 9.45703 19.286C9.09803 19.3448 8.76677 19.4995 8.50595 19.73L8.43955 19.79C8.23399 19.976 7.98988 20.1235 7.72119 20.2241C7.45249 20.3248 7.16448 20.3766 6.87361 20.3766C6.58275 20.3766 6.29473 20.3248 6.02604 20.2241C5.75735 20.1235 5.51324 19.976 5.30768 19.79C5.10189 19.6043 4.93864 19.3837 4.82726 19.1409C4.71587 18.8981 4.65854 18.6378 4.65854 18.375C4.65854 18.1122 4.71587 17.8519 4.82726 17.6091C4.93864 17.3663 5.10189 17.1457 5.30768 16.96L5.37408 16.9C5.62921 16.6643 5.80035 16.365 5.86545 16.0406C5.93054 15.7162 5.8866 15.3816 5.73928 15.08C5.599 14.7842 5.36606 14.532 5.06916 14.3543C4.77225 14.1766 4.42433 14.0813 4.06821 14.08H3.88008C3.29307 14.08 2.7301 13.8693 2.31502 13.4942C1.89994 13.1191 1.66675 12.6104 1.66675 12.08C1.66675 11.5496 1.89994 11.0409 2.31502 10.6658C2.7301 10.2907 3.29307 10.08 3.88008 10.08H3.97968C4.34598 10.0723 4.70123 9.96512 4.99925 9.77251C5.29727 9.5799 5.52427 9.31074 5.65075 9C5.79806 8.69838 5.84201 8.36381 5.77691 8.03941C5.71182 7.71502 5.54068 7.41568 5.28555 7.18L5.21915 7.12C5.01336 6.93425 4.85011 6.71368 4.73872 6.47088C4.62734 6.22808 4.57001 5.96783 4.57001 5.705C4.57001 5.44217 4.62734 5.18192 4.73872 4.93912C4.85011 4.69632 5.01336 4.47575 5.21915 4.29C5.42471 4.10405 5.66881 3.95653 5.93751 3.85588C6.2062 3.75523 6.49422 3.70343 6.78508 3.70343C7.07595 3.70343 7.36396 3.75523 7.63266 3.85588C7.90135 3.95653 8.14546 4.10405 8.35101 4.29L8.41741 4.35C8.67823 4.58054 9.0095 4.73519 9.3685 4.794C9.72749 4.85282 10.0978 4.81312 10.4315 4.68H10.5201C10.8474 4.55324 11.1266 4.34276 11.3232 4.07447C11.5198 3.80618 11.6253 3.49179 11.6267 3.17V3C11.6267 2.46957 11.8599 1.96086 12.275 1.58579C12.6901 1.21071 13.2531 1 13.8401 1C14.4271 1 14.9901 1.21071 15.4051 1.58579C15.8202 1.96086 16.0534 2.46957 16.0534 3V3.09C16.0548 3.41179 16.1604 3.72618 16.357 3.99447C16.5536 4.26276 16.8328 4.47324 17.1601 4.6C17.4939 4.73312 17.8641 4.77282 18.2231 4.714C18.5821 4.65519 18.9134 4.50054 19.1742 4.27L19.2406 4.21C19.4462 4.02405 19.6903 3.87653 19.959 3.77588C20.2277 3.67523 20.5157 3.62343 20.8065 3.62343C21.0974 3.62343 21.3854 3.67523 21.6541 3.77588C21.9228 3.87653 22.1669 4.02405 22.3725 4.21C22.5783 4.39575 22.7415 4.61632 22.8529 4.85912C22.9643 5.10192 23.0216 5.36217 23.0216 5.625C23.0216 5.88783 22.9643 6.14808 22.8529 6.39088C22.7415 6.63368 22.5783 6.85425 22.3725 7.04L22.3061 7.1C22.051 7.33568 21.8798 7.63502 21.8147 7.95941C21.7496 8.28381 21.7936 8.61838 21.9409 8.92V9C22.0812 9.29577 22.3141 9.54802 22.611 9.72569C22.9079 9.90337 23.2558 9.99872 23.6119 10H23.8001C24.3871 10 24.9501 10.2107 25.3651 10.5858C25.7802 10.9609 26.0134 11.4696 26.0134 12C26.0134 12.5304 25.7802 13.0391 25.3651 13.4142C24.9501 13.7893 24.3871 14 23.8001 14H23.7005C23.3444 14.0013 22.9964 14.0966 22.6995 14.2743C22.4026 14.452 22.1697 14.7042 22.0294 15V15Z" stroke="#04091E" stroke-width="2" stroke-linecap="round" stroke-linejoin="round"/>
</g>
</g>
</g>
<defs>
<filter id="filter0_d_0_1" x="-76" y="-360" width="432" height="580" filterUnits="userSpaceOnUse" color-interpolation-filters="sRGB">
<feFlood flood-opacity="0" result="BackgroundImageFix"/>
<feColorMatrix in="SourceAlpha" type="matrix" values="0 0 0 0 0 0 0 0 0 0 0 0 0 0 0 0 0 0 127 0" result="hardAlpha"/>
<feOffset/>
<feGaussianBlur stdDeviation="25"/>
<feComposite in2="hardAlpha" operator="out"/>
<feColorMatrix type="matrix" values="0 0 0 0 0.0156863 0 0 0 0 0.0352941 0 0 0 0 0.117647 0 0 0 0.1 0"/>
<feBlend mode="normal" in2="BackgroundImageFix" result="effect1_dropShadow_0_1"/>
<feBlend mode="normal" in="SourceGraphic" in2="effect1_dropShadow_0_1" result="shape"/>
</filter>
<linearGradient id="paint0_linear_0_1" x1="-970.293" y1="-572.5" x2="-253.054" y2="657.365" gradientUnits="userSpaceOnUse">
<stop stop-color="#36BB91"/>
<stop offset="1" stop-color="#CFE0E6"/>
<stop offset="1" stop-color="#CFE6DB"/>
</linearGradient>
<clipPath id="clip0_0_1">
<rect width="1440" height="5528" fill="white" transform="translate(-1102 -410)"/>
</clipPath>
<clipPath id="clip1_0_1">
<rect width="26.56" height="24" fill="white" transform="translate(0.560059)"/>
</clipPath>
</defs>
</svg>
