<svg width="49" height="48" viewBox="0 0 49 48" fill="none" xmlns="http://www.w3.org/2000/svg">
<rect x="1.42041" y="0.5" width="47" height="47" rx="23.5" stroke="#04091E"/>
<g clip-path="url(#clip0_128_927)">
<path d="M35.9204 15C34.9628 15.6755 33.9025 16.1922 32.7804 16.53C32.1781 15.8376 31.3777 15.3467 30.4874 15.124C29.5971 14.9012 28.6599 14.9572 27.8025 15.2845C26.9451 15.6118 26.2089 16.1944 25.6934 16.9538C25.1779 17.7131 24.9081 18.6124 24.9204 19.53V20.53C23.163 20.5756 21.4217 20.1859 19.8514 19.3955C18.2812 18.6051 16.9307 17.4387 15.9204 16C15.9204 16 11.9204 25 20.9204 29C18.8609 30.398 16.4076 31.099 13.9204 31C22.9204 36 33.9204 31 33.9204 19.5C33.9195 19.2215 33.8927 18.9436 33.8404 18.67C34.861 17.6635 35.5812 16.3928 35.9204 15Z" stroke="#04091E" stroke-width="2" stroke-linecap="round" stroke-linejoin="round"/>
</g>
<defs>
<clipPath id="clip0_128_927">
<rect width="24" height="24" fill="white" transform="translate(12.9204 12)"/>
</clipPath>
</defs>
</svg>
